/* XPM */
static char *_3cc9d1f8b1e4147874e410dcf63a79bJJzdu34DQrPDkpfd[] = {
/* columns rows colors chars-per-pixel */
"50 50 215 2 ",
"   c #27383F",
".  c #2F4349",
"X  c #33444B",
"o  c #39454C",
"O  c #344B54",
"+  c #3D4E55",
"@  c #394B55",
"#  c #3E545A",
"$  c #335A67",
"%  c #245C74",
"&  c #266078",
"*  c #444F59",
"=  c #43545B",
"-  c #47595F",
";  c #4A555A",
":  c #4B5460",
">  c #465A63",
",  c #4B5C64",
"<  c #4D5F69",
"1  c #445760",
"2  c #535C67",
"3  c #4C6166",
"4  c #4E626A",
"5  c #46606D",
"6  c #53646C",
"7  c #56686F",
"8  c #5A656E",
"9  c #466978",
"0  c #566973",
"q  c #5A6C74",
"w  c #5C6F79",
"e  c #5D6771",
"r  c #5E7177",
"t  c #5E717B",
"y  c #567276",
"u  c #636C75",
"i  c #636E79",
"p  c #63747C",
"a  c #68727D",
"s  c #65797E",
"d  c #176D9D",
"f  c #196D9C",
"g  c #19719E",
"h  c #3B758D",
"j  c #367088",
"k  c #196FA0",
"l  c #0F73AF",
"z  c #1974A7",
"x  c #0F76B1",
"c  c #1276B2",
"v  c #177BB2",
"b  c #257BAA",
"n  c #49758E",
"m  c #597B87",
"M  c #437B94",
"N  c #527E97",
"B  c #657580",
"V  c #6B7681",
"C  c #647A83",
"Z  c #6B7C84",
"A  c #6C7E88",
"S  c #717C83",
"D  c #727E8B",
"F  c #1F80B7",
"G  c #2781AD",
"H  c #3484AC",
"J  c #3A88AE",
"K  c #3583A7",
"L  c #2281B3",
"P  c #2C84B4",
"I  c #3386B2",
"U  c #348BB9",
"Y  c #3A8AB7",
"T  c #5A828D",
"R  c #4B839B",
"E  c #56839B",
"W  c #59899F",
"Q  c #6F8087",
"!  c #6E828B",
"~  c #73848C",
"^  c #77888E",
"/  c #79818C",
"(  c #698A98",
")  c #748690",
"_  c #768A93",
"`  c #7B8C94",
"'  c #7C8E99",
"]  c #778F99",
"[  c #69909C",
"{  c #7F9097",
"}  c #7D939C",
"|  c #7E9A9E",
" . c #548CA3",
".. c #5A8BA2",
"X. c #5B94AB",
"o. c #5791A7",
"O. c #438CB4",
"+. c #488EB4",
"@. c #4C94BB",
"#. c #4B91B4",
"$. c #5797B6",
"%. c #6893A8",
"&. c #7B9AA8",
"*. c #629AB1",
"=. c #729CB2",
"-. c #4293C0",
";. c #5A9EC5",
":. c #5EAED1",
">. c #77B9D9",
",. c #83949C",
"<. c #86989F",
"1. c #8A949D",
"2. c #858D9A",
"3. c #8496A0",
"4. c #8699A2",
"5. c #8B9DA4",
"6. c #8C9EA9",
"7. c #889AA5",
"8. c #939DA8",
"9. c #8EA1A7",
"0. c #8EA2AB",
"q. c #86A2AA",
"w. c #93A4AC",
"e. c #9AA5AE",
"r. c #96A9AF",
"t. c #85A3B1",
"y. c #8DA5B2",
"u. c #8DAAB9",
"i. c #94A6B1",
"p. c #9DA6B1",
"a. c #95AAB3",
"s. c #9BACB4",
"d. c #95AEBB",
"f. c #9CAEB8",
"g. c #9FB0B7",
"h. c #9EB1BB",
"j. c #98B4BB",
"k. c #A2ADB6",
"l. c #A3B2B6",
"z. c #A3B4BC",
"x. c #AAB4BE",
"c. c #A5B9BE",
"v. c #AABDBF",
"b. c #9CB6C4",
"n. c #9DB9C7",
"m. c #98B5C3",
"M. c #96BAD0",
"N. c #A4B6C1",
"B. c #ACB5C2",
"V. c #A6BAC3",
"C. c #ABBCC4",
"Z. c #A4BDCA",
"A. c #ACBECA",
"S. c #B0BECB",
"D. c #B3BEC4",
"F. c #A5C0C4",
"G. c #ADC1C6",
"H. c #AEC2CB",
"J. c #AEC9CE",
"K. c #A3C0CE",
"L. c #B1C4C5",
"P. c #B3C4CC",
"I. c #B9C3CD",
"U. c #B6C8CE",
"Y. c #B9CBCE",
"T. c #ACC5D2",
"R. c #ACCADA",
"E. c #A7C7D5",
"W. c #B4C6D1",
"Q. c #BBC6D3",
"!. c #B6C8D2",
"~. c #B7C9D0",
"^. c #B4CAD3",
"/. c #B9CAD1",
"(. c #B8CAD4",
"). c #BACCD6",
"_. c #BDCED5",
"`. c #BBCCD3",
"'. c #B3CDDC",
"]. c #BCCED8",
"[. c #BDCADA",
"{. c #ACD2DF",
"}. c #B7D0D4",
"|. c #BFD0D7",
" X c #BED0D7",
".X c #B3D1DE",
"XX c #BFD1DB",
"oX c #BFD0D8",
"OX c #BDD2DA",
"+X c #B1CEE0",
"@X c #ADD3E2",
"#X c #B5D3E3",
"$X c #BAD6E4",
"%X c #B9D9E7",
"&X c #C0CCD7",
"*X c #C3CEDA",
"=X c #C0D2DC",
"-X c #C3D5DF",
";X c #C3D4DB",
":X c #C9D2DE",
">X c #C7D8DF",
",X c #C6D1D7",
"<X c #C4D6E0",
"1X c #C6D4E2",
"2X c #C7D9E2",
"3X c #C3DAE4",
"4X c #CADBE3",
"5X c #CCDCE9",
"6X c #C6DAE7",
"7X c #D0DBE7",
"8X c #CEE0E7",
"9X c #CBE1ED",
"0X c #D1E2EA",
"qX c #D7E8EF",
"wX c #DAEDF6",
/* pixels */
"z.C.[.[.C.H.^.L.P.2XC.].A._ z.[.<XA.W.z.V N.OX).(.].(.P.].f._ z.L.;XP.P._._.V.S z._.V.P.`.s.k. XL.w.",
"0.f.A.(.^.[.XXW.V.[.V.H.6.p i.C.XX!.=XV.C N.].A.(.].].W.<XA.` 0.~.U.B./.`.=XL.D l.L.C.P.l.,.<.<.h.,.",
"w.f.N.C.A.P.P.A.(.<X(.A.) 0 8.a.h.A.=Xf.V (.5X(.W.(.^.A.-X(.3.7._./.`. Xv.C.P._ Y.`.D.V.9.<.s.5.w._ ",
"6.f.f.i.s.f.N.A.N.z.f.w.w w f.f.z.^.[.6.0 H.2X!.].XX].C.(.).w.4.2X/.L.v.7.l.L.p f.P.k.5.,.,.w.<.6.) ",
"~ i.z.f.z.N.C.].(.N.f.6.p ) N.f.z.P.A.' w W.0X1X2X5XqX[.).].i.,.>Xz.5.,.` C.U.7 ` U.l.w.l.9.{ ` _ B ",
"+ ) 6.6.w.' ) 7.~ t 0 4 1 w ` ~ A ) V > O ' ,.' } 4.h.i.w.w.~ B ^ V 0 7 3 ~ w.p + ~ p 6 t 8 7 r 0 # ",
"O ~ 7.,.3.B = < B 0 p D 3.a.N.A.A.C.f.w.) 5.w > t w _ ` ] } ! Z 3 + o , - = V Q D ~ ~ ~ 6 p w.w.z.3.",
"3.[.6XXX1XN._ 3.5X-X<X<X6X<XH.].(.W.(.6X=X=X` w 5XP.-XOX[.4X<X<XC.V - ,.v.9.5.r.`.l.`.;X` <.0XL.N.,.",
"N.H.(.[.H.<X2X) H.).[.^.H.L.!.(.<X[.H.=XW.W.A A -XN.z.P.W.N.z.C.P.P.B r.c.v.,.L._.v.D.2XV.p.P.z.6.< ",
"h.H.XX2X).4X-XA i.N.W./.).[.[.).f.f.a.N.P.6X3.A (.P.A.T.W.H.C.C.L.r.p p.w.z.z. X=X5X=X_.L.L.=XL.6.> ",
"f.H.XX2XXX<X(.V N.W.XXXX[.W.T.C.f.z.z.s.N.<X3.6 z.P.(.P.P.(.(.H.&X5.D Y.f.D./.&XL.-XY.L.V.l.Y.G.s.< ",
"s.P.(.XX).[.A.B C.H.C.h.w.6.3.,.' } 6.6.f.[.a.~ a.C.W.W.P.W.(.^.Y.,.A Y.P.U.`.P.&XQ.;X7Xc.7.Y.>XB.w ",
"3.N.H.[.].^.z.p B C A p w B w w , @ w A ~ ,.' ) z.V.H.(.A.f.z.A./.9.p w.P.Y.P.Y.&XC.4X4XQ p /.&XN.w ",
"A a.C.[.-X^.a.q w.f.N.C.A.W.P.C.` < ~ ' ' ~ _ _ W.W.W.W.f.7.3.r.C.<.- q 2.<.5.5.v.U.0XG., Z >XC.W._ ",
"B w.f.H.=XP.i.B W.).XX=X<X2X<X_.N.V i.N.^.W.[.A.H.W.P.z.0.7.7.5.5.Z 7 V Q ~ ` 4 e w.s.~ 3 ~ h.{ ' < ",
"C w.i.z.P.A.f._ XX X^.L.A.W.(.^.s.0 ' 6.H.U.U.w.f.H.C.w.3.w.f.w.9.^ h.8XY.Y.;XZ p L.L.C.;X>X&XL.N.) ",
"B r.l.c.Y._.~ ~ =X`.P.P.U.V.v.=XA.p < 5.z.C.&Xw.5.L.l.w.5.<.5.,.1.^ l.L.A.f.P.C.r.>X;XY./.P.&X XN.9.",
"* ^ ,.<.` 2.3 ~ `.;X;X=X&XU.P.*XU.Q - 2.V.L.`.c.6 ^ Z p s p p 6 3 - 9.L.P.v.P.5.x.&XP.Y.Y.C./.XXH.j.",
"= p V ^ ,.<.7 ` Y.&X&XY.P.Y.P.L.Y.^ 3 9.=X&XY.c.= Z Z ~ { 2.,.^ a - <.c.z.C.`.` G.>XU.`. XG.G.U.).Z.",
"g./.L.Y.&XY.~ ^ 0X>X-X,X=X>X;X/.&XZ 7 s./.L.L.<.8././.;X>X-X4X;Xc.Z w.s.w.z.&XZ g.;X&X;X>X/. XU.^.V.",
"<./.`.c.r.w., 7 4XL.Y.-X-X4X>XY.;Xs Z `.P.U.>X^ l.-X;X XY.z.C.C.L.^ f.C.c.C.Y.8 r.>X>X&X>X8X0X;X-XJ.",
"g.;XP.z.r.9.3 e ,.Q _ 1.{ w.r.` ,.- ~ -X`.`.4XQ z.>X;X;X;XU.>X4X;X5.C.I.L.C.V.7 ^ s.5.,.<.9.g.w.0.} ",
">X2XC.c.r.` . 3 ~ ~ ^ p - / r.~ p , 8 ,.1.5.w.r { f.p.g.v.l.v.C.I.,.w.k.z.w.9.6 + - + 6 Q s Q Q w > ",
"l.L.Y.>XC.2.3 g.,X0X>X,.q l.wX/.`.v.r + , 7 ~ 2.` 5._ ^ ^ p 7 , ~ , s ` 5.Q s o * + = <. XY.`.&X^.h.",
"z.;XP.v.C.9.3 C.Y./.L.r.,.`._.Y.;X8X>X<.G.>X;X`. X;X&X;X;Xc.- r.f.P.Y.P.U.D.z.s.,.r.Q ` P.W.L./.P.C.",
"~ ~.;X,X=Xp.6 f.I.;X=Xs.5.Y. X;Xv.`.,X<.C.;X&X`.Y.C.s.x.;X XZ Y._._.U.U.=X_./.-X>X>X,.2./.~.C.D.U.z.",
"D U.`.U.`.V.~ v.>X0X>Xr.p.P.P.Y.;X0X>X` ,.<.` ` ` Q p s 5.5.p L.P.v.r.c.Q.P.H.`.&X Xs s U._.c.v.P.s.",
"p c.5.^ ` ^ = 8 6 q q > { L.;X5X_.;XL.p ~ ,.<.w.e.s.r.w.w.~ p Y.v.g.5.9.v.D.C./.P.Y.Z A &XP.5.5.f.<.",
"  ,.9.s.L.,Xz.P.C.L.z.2.,.C.P.&XL.L.z.A r.I. X>X;X0XqX=Xv.V 0 g.<.2.p - 0 s ~ ^ <.l.Z ^ Y.D.5.5.5.^ ",
"= C./. XP.U.V.P.P.=X;Xv.Z s.C.2X&X/.C.` C.&XY.U.P.P.Q.P.x.p 7 ,.<.5.` p 6 o . X X , . = ~ Z s A Z 6 ",
"p &XP./.L.U.Q.,XG.P.Q.Y.7 r.z./.L.D.x.` C.=XY.P.`.L.Y.Y.;X<.9.L.;X4X0X5Xv.~ p 2.w.l.5.w.r.9.r.w.~ ; ",
",.>XG. XXX-XU.c.-XL.G.>X6 c.f.s._.U.C.` C.;X,X>X&XI.Q.Y.&X,.s.*X&XP.Y.2XD.^ 5.wX;X>X-X0X;X X8X,X>Xw.",
"a.j.j.h.P.(.H.T.).Z.Z.0.m f.d.f.v.:Xx.u &X&X:X7XQ.:X7XD.,Xe.^ &XI.*X=XQ.A.B ;XB.W.W.!.W.A.S.W.Q.>Xr.",
") y.Z.Z.K.n.Z.^.'.Z.j.] < 7.y.f.Y.L.2.: I.:X,X&X*XS.B.x.,Xl.a w.Q._.].A.j.{ 6X[.S.W.Q.W.S.W.W.Q. X0.",
"> ! ,.] _ ! ) } p 0 t 3 @ } a.f.v.9.r # &X4X:X&X7X7X7X:X,X9.s j.i.h.[.A.r.r.J.F.A.P.(.^.(.W.W.W.}.y.",
"1 0 0 w ! } 4.0.N.j.f.4.! ,._ < 3 y - # 8.1.<.w.5.V.B.D.9.s 3 r.0.a.J.Z.q.}.}.}.H.T.T.J.T.J.T.T.8Xj.",
"C.(.U.G. X8X8X8X XU. XOX-X2XL.Z . - 3 # s 3 3 r 4 6 O s s y 3 ^ | ] | s # y.j.}.}.J.J.J.J.J.J.J..Xy.",
"0.(.4XY.H.G.N.C.-X(.U.U.-X).H.0 r.L.F.F.}.L.c.L.F.r.s v.}.;Xv.}.}.F.F.q.y j.c.J.J.J.J.J.J.J.J.J.n.] ",
"r r.;X XU.^.`.,XG.c.z.g.U.G./.Q r.v.L.v.J.Y.L.Y.Y.v.~ Y.L.Y.L.}.}.}.OXF._ <.0.q.j.F.F.G.J.J.F.c.0.t ",
"Z z.;X/.U.U.L.P.z.g.p.r.G.C.;X^ <.v.Y.L.v.v.l.v.L.l.s L.L.}.L.L.G.G.}.v.| | j.l.0.r.g.G.G.G.c.a.0.p ",
"t G.(.U.U.z.a.6.5.<.<.s.l.H.).5.1.,XD.k.k.x.1.e.l.1.a 2.l.I.I.I.Q.[.B.p.B 2 8.N.c.l.k.k.N.k.w.7.S 8 ",
"4 } ^ B t < < 6 4 = $ t ~ 0.z.,.* 7.e.1.a a a / u ; * 2 u a a S D D D V 2 : B D S p u e 8 : : o ; o ",
"O ] 5.a.V.d.N.C.0.0.0.q.w , ! ~ i e o o 2 8.1.i 1.1.8.e.p.e.e.p.8.8.8.3.2.V 1 : 8.e.w.p.B.B.B.B.u ; ",
"O y.'.<X9X$X#X[.6X9XwX9X7.m a.T.5X(.s.<.a I.7X/.Q.,X4X7X4X:X1X1X1X*X1X*X7XS.D D *X[.[.[.[.[.[.Q./.z.",
"> E.6XR.A.E.R.Z.A.Z.Z.#Xm.t.'.$XF.OX9X.XC q.R.}.(.(.'.T.T.T.T.A.b.u.N.b.#XT.C B '.'.W.T.Z.Z.N.b.(.N.",
"9 n.'.n.Z.E.#XR.+XT.R.%Xm.t.R.'.%X%X%X%X&.d.K.m.n.m.u.t.t.t.&.( 7.&.u.b.R.Z.} ( m.n.Z.K.T.+X+X+XM.m.",
"&.%X%X+X%X+X+XR.R.+X#X%Xm.t.+X$X%X%X@XE.m T [ &.[ [ ( T T m 9 $ $ $ n ( %.[ [ m E.{.+X@X@X{.+X+X@XM.",
"..=.E E %.N N .... .N ..n n %.E *.o. .$.h h R X.X.X.X.X.X. .M % j j n X.M % h % M R  . . . . . . .M ",
"#.>.@.#.#.@.O.+.O.@.+.+.@.;.;.O.d d f d f f f d d d d d k k z k k k k d k b b H H J J H H J J J H z ",
"K :.J J H Y P P P U U P Y -.O.b l l l l l l l l l l l l l c c c x x x x l c F P F F L z G G G z L v "
};
