/* XPM */
static char *_cf4e12386a0465988f6b52a9c8b8d976IBlsNUKPbVHzboj[] = {
/* columns rows colors chars-per-pixel */
"50 50 256 2 ",
"   c #040400",
".  c #0B0301",
"X  c #0C0A04",
"o  c #090909",
"O  c #130401",
"+  c #1A0500",
"@  c #150A04",
"#  c #1B0B01",
"$  c #140D0B",
"%  c #0E1209",
"&  c #13120C",
"*  c #1B130C",
"=  c #191809",
"-  c #0B0914",
";  c #131412",
":  c #1B1513",
">  c #1C1C14",
",  c #1C1B1B",
"<  c #14191A",
"1  c #100E18",
"2  c #210E01",
"3  c #250A03",
"4  c #231203",
"5  c #2B1403",
"6  c #25170B",
"7  c #361A06",
"8  c #241C15",
"9  c #221D1C",
"0  c #271A14",
"q  c #341E10",
"w  c #1E2316",
"e  c #23221B",
"r  c #272417",
"t  c #372A1B",
"y  c #36280C",
"u  c #1C1D22",
"i  c #271E20",
"p  c #1E2124",
"a  c #242424",
"s  c #2B2522",
"d  c #2C2B24",
"f  c #2C2B2A",
"g  c #272727",
"h  c #342C27",
"j  c #2C3127",
"k  c #36352B",
"l  c #373834",
"z  c #2E2F31",
"x  c #46270C",
"c  c #452A15",
"v  c #48331C",
"b  c #59361A",
"n  c #5B2F07",
"m  c #67360A",
"M  c #683A17",
"N  c #723916",
"B  c #6B300C",
"V  c #493829",
"C  c #593A24",
"Z  c #473B31",
"A  c #693F25",
"S  c #421E10",
"D  c #3A4233",
"F  c #78461A",
"G  c #6C4118",
"H  c #5A4125",
"J  c #484839",
"K  c #554637",
"L  c #59523C",
"P  c #4A4025",
"I  c #694727",
"U  c #774B26",
"Y  c #78532A",
"T  c #6A4A35",
"R  c #6D5338",
"E  c #775638",
"W  c #704D35",
"Q  c #5A5648",
"!  c #5B5D58",
"~  c #4C4E46",
"^  c #7C5B45",
"/  c #645C54",
"(  c #655B49",
")  c #796546",
"_  c #686759",
"`  c #786C5A",
"'  c #7A735C",
"]  c #706A4D",
"[  c #5B6469",
"{  c #797869",
"}  c #787A76",
"|  c #6B6E68",
" . c #5F6D5E",
".. c #8B4C1B",
"X. c #855425",
"o. c #8C5B2A",
"O. c #885629",
"+. c #965C2C",
"@. c #855B38",
"#. c #925C39",
"$. c #824A26",
"%. c #97612D",
"&. c #8C6238",
"*. c #946433",
"=. c #9C6A35",
"-. c #9B6A3A",
";. c #976538",
":. c #9A703E",
">. c #A26D3B",
",. c #A26C38",
"<. c #A4723C",
"1. c #AA723E",
"2. c #A05E2C",
"3. c #835D43",
"4. c #8D5E44",
"5. c #896646",
"6. c #986B47",
"7. c #9A734B",
"8. c #886853",
"9. c #966B54",
"0. c #997558",
"q. c #8A7754",
"w. c #A56B45",
"e. c #A47243",
"r. c #AA7444",
"t. c #A4744C",
"y. c #AC7A4B",
"u. c #AA7749",
"i. c #B57948",
"p. c #A77957",
"a. c #B47B57",
"s. c #AC6F53",
"d. c #867A68",
"f. c #987C65",
"g. c #847E74",
"h. c #A67C65",
"j. c #778278",
"k. c #A9825D",
"l. c #B3835B",
"z. c #BB845C",
"x. c #B98758",
"c. c #BA8047",
"v. c #88846B",
"b. c #9B8667",
"n. c #8B8474",
"m. c #888679",
"M. c #958B78",
"N. c #9B947C",
"B. c #999578",
"V. c #949374",
"C. c #A38363",
"Z. c #AA886A",
"A. c #BC8B63",
"S. c #B68865",
"D. c #BB926A",
"F. c #A58A73",
"G. c #A79778",
"H. c #B79874",
"J. c #AB9070",
"K. c #A8A379",
"L. c #BFA17C",
"P. c #93936C",
"I. c #C78C4D",
"U. c #C48A58",
"Y. c #CC945C",
"T. c #C99459",
"R. c #D39A5E",
"E. c #D69A5E",
"W. c #C48D66",
"Q. c #C3946C",
"!. c #CB956C",
"~. c #CB9B6C",
"^. c #C89566",
"/. c #D39B62",
"(. c #D29868",
"). c #C79773",
"_. c #D69B76",
"`. c #C88F6C",
"'. c #D7A67B",
"]. c #D1A273",
"[. c #E6A57B",
"{. c #E29F74",
"}. c #888984",
"|. c #928D85",
" X c #8D9285",
".X c #989687",
"XX c #9A9B96",
"oX c #8A929D",
"OX c #A59B88",
"+X c #AD9C8B",
"@X c #9BA392",
"#X c #A5A285",
"$X c #ADAA8D",
"%X c #AAA589",
"&X c #B4A988",
"*X c #B7B48C",
"=X c #AAA695",
"-X c #B5AB95",
";X c #B7B599",
":X c #AFB299",
">X c #ADABA2",
",X c #B5ADA4",
"<X c #ACB6AA",
"1X c #BDBDAC",
"2X c #B9B8A6",
"3X c #B2B6B7",
"4X c #909DAD",
"5X c #C3B79D",
"6X c #D8A183",
"7X c #C6BBA7",
"8X c #C8BDAF",
"9X c #E6AB8D",
"0X c #BDC1A9",
"qX c #BEC6B9",
"wX c #BCC397",
"eX c #C4C2A5",
"rX c #CAC6A9",
"tX c #D5C9AC",
"yX c #CCCBBC",
"uX c #C7C7B6",
"iX c #D3CBB4",
"pX c #D4CDBB",
"aX c #D9CBB6",
"sX c #DAD3BD",
"dX c #D4D2B6",
"fX c #CED3A8",
"gX c #E2D1B9",
"hX c #E2CDB3",
"jX c #C0C59C",
"kX c #B2B9C4",
"lX c #BEC7CC",
"zX c #C8CCC6",
"xX c #D4CEC1",
"cX c #CBD4C9",
"vX c #DBD3C3",
"bX c #DDDACB",
"nX c #D6D7C8",
"mX c #CDD6D9",
"MX c #D8DCD5",
"NX c #C0CAD3",
"BX c #E4DAC6",
"VX c #E2DBD1",
"CX c #DAE4D8",
"ZX c #DFE7C0",
"AX c #E5E1CF",
"SX c #E7E7D9",
"DX c #F4EAD6",
"FX c #F6EFD5",
"GX c #E7EAE3",
"HX c #E9F4EA",
"JX c #FEFCED",
"KX c #F8F6E8",
"LX c #FCFDF4",
"PX c #FCFFFB",
"IX c #F4FAF3",
"UX c #D6E0E7",
/* pixels */
"2XyXxXuX,X:X2X:X:X*X*XK.B.G.K.&X&X%XG.P.V.B.%X$X%X#X#X#X%X#XN.n.-XBXKXFXDXFXKXKXKXFXBXgXxXDXPXLXKXKX",
"8XxXVXxX1X1X0X0X:X:X$X*X*XK.G.G.K.%X*X;X;X$XK.N.#X#X#X%X-X$X#XB.5X-X6X$X5X5X7X7X7X7X8X7X8X1X8X,XpX8X",
"8XbXGXbXqXqXuXuXfX0X:XwX*X&XK.&XM.V.V.N.#X$X:X;X:X:X:X:X2XeX2X2X-XOXOX+X+XF.d.8.8.g.-X+X8X}.g.n.n.F.",
"zXGXGXVXyXfXqXuXqXfXqXjX;X;X;X;X:X#XP.j._ { v.m.{ _ _ _ ` } m.|.2X=X%X=XOXd.g.n.( ' OX|.8X_ L Q / / ",
"bXHXIXHXCXcXcXcX0XcXZXqX:X:X%Xv.~ J D k r r : : d s 9 9 e d k l ! { M.OX=X%X.Xm.| g.XXn.-XK y t K K ",
"GXPXPXIXGXCXCXZXcXmXqXj. ._ Q k t j h h k k k k s s s h f g 9 > X e l / g.XX.Xm.n.M..Xn.OXQ t 0 Z Z ",
"GXLXPXIXHXHXHXCXCX0Xj.J j r w > k h r e > e e s g f h z z g a 9 s =     , ~ } XXm.m.}.M..X{ K t V V ",
"MXGXHXHXHXHXHXCX<X .j w w = > r & & : 8 8 e s s i i i 9 9 i s h : & e g , $ j ! }.} n.|.M.d.R 6 V V ",
"zXzXPXUXCXHXCX4Xj.~ w w = = w 6 6 # # $ * 6 6 = 6 * $ + $ $ 0 i s k 9 O , , % < ! .X.X{ |.' ] O V Z ",
"cXmXPXcXqXcX0X .D j w w r 4 # @ O # 2 4 2 2 # 5 + + + 3 3 3 * 3 0 t 0 9 8 , ; ; l |  Xv..XM.M.L C Z ",
"zXcXPXcXyXcX<X_ = = = 6 4 4 7 c c C I H v x y v 7 7 q c c S q 3 3 q h h s s e ; < l m. XM.OX$XG.f.d.",
"zXcXIXMXcXcX0X] y y P P x v E 9.7.C.Z.C.6.3.&.5.3.3.3.3.8.4.A C 7 5 7 t 8 d k ; % % } |.v.B.N.G.8X8X",
"cXMXIXcXzXuX:XL P ] P.C.7.7.s.S.S.D.D.D.D.x.D.H.).Q.D.D.).D.h.t.A S 7 7 2 r d % ;    .V.j.B.M.V.|.G.",
"UXHXLXCXbXyXfX( ) P.L.'.D.D.W.W.^.T.T.T.x.T.T.^.~.~.^.(.).!.W.A.p.3.C q 4 0 r & < ; ~  X#X2X$X$X%X=X",
"HXLXPXKXKXSXFXv.b.H.H.D.^.^.^.Y.R.R./.T.T.I.I.x.I.U.U.Y.Y.T.T.W.).Z.E x 5 6 = e ; e D  X:XdXaXtX7X0X",
"IXPXLXKXJXFXKXb.P.D.D.D.^.].(.E.I.R././.R.T.R.R.T.Y././.Y.Y.T.T.W.S.@.S 5 O . w   d = j.-XdXgXhXiXiX",
"zXGXLXHXSXJXBXv.P.K.K.H.).~.].(.R.R.R.R.R././.Y.Y.R./.R.T.I.I.R.x.x.&.x 5 6 6 $ , : h m.;XBXhXtXtXdX",
"zXGXLXMXuXnXdXN.&X*X].L.L.Q.D.W.T.R.R.R.(.~.~.~.^./././.T.c.c.c.:.&.W x 5 4 8 , ; o 9 d.+XgXhXtXdXiX",
"qXSXKXnXqXsXvX$X) ) ) 5.k.k.W.Q.~.!.~.~._._.'.'.'.].'.'.]./.I.x.k.&.I x q 6 : < p 1 a g.,XDXAXBXsXsX",
"zXzXcX>XuXnXvX%X] R R Y Y o.6.7.t.t.t.p.0.p.0.h.J.D.D.D.D.x.x.x.k.Y 5 # = r , , < - p } XXpXtX7XsXsX",
"MXzX,X}.2XrXdX$XG.v.) Y U U #.s.7.9.4.8.3.W W ^ 0.0.C.Z.D.D.x.k.J.) x 5 4 : < u < - g | }.4Xm.{ v.M.",
"zXbXGX8XCXrXrX$X] E I b b A #.a.h.0.f.0.8.W A ( ^ 8.0.Z.J.J.k.b.C.b.) P 6 @ * i p p l } } }.| Q V.M.",
"yXHXLXAXJXiX7X&Xq.) Y I M B O.s.9.9.9.9.8.W ( ^ T T T E 5.q.7.7.I R T x 5 2 0 s ; 9 Z |.}..Xg.{ J J ",
"CXSXKX0XSX2XeX-XM.b.C.0.4.4.a.6X6.4.9.h.h.9.9.h.T C b b A &.p.k.l.C.&.x 7 7 5 + 0 h / ,X8XnXxXxX1X2X",
"qXCXLX2XbXM.' ;XG.&XH.h.t.a._.9X_.#.4.`.Z.h.h.h.J.h.p.p.a.).!.A.x.t.&.G 7 3 x 4.f.F.d.F.8XvXiXbXbXVX",
"qXCXPX1XuX:XN.M.G.J.Z.a.h.`._._.`.w.w.`.`.`.`.Q.`.!.`.`._._.^.x.<.y.e.X.B n @.p.h.h.f.M.7XaXaXBXxXpX",
"zXCXIXyXuXnXsX5XG.J.C.k.`._.[._.`.s.i.a.a.`.`.`.`.`.!.(.`.E.I.r.r.U.c.+...;.t.6.s.p.p.Z.8XhXaXvXxXxX",
"zXmX<X} { m.g.G.G.J.C.l.`.6X9X{.{.E.a.w.w.s.z.A.a.W.U.a.i.c.c.i.c.x.1.O.+.i.r.$.a.C.h.Z.hXgXaXvXpXuX",
"NXUX} l | |.g.+XG.J.Z.A.U.E.E.U.U.`.U.w.s.a.z.W.z.W.x.r.i.i.i.c.e.-.o.O.,.i.i.#.A.S.J.G.DXDXSXSXAXAX",
"kXPX}.u XXSXBXgXb.k.l.D.a.w.2.....w.2.w.a.W.A.z.z.A.U.x.i.i.1.1.*.*.*.:.6.>.s.S.S.S.+X+XJXKXLXLXLXJX",
"kXPXoX1 } >XiX;XF.C.s.s.i.2.....N 2.w.s.W.A.p.l.p.S.z.l.i.r.2.2.;.5.6.6.w.u.h.W.S.Z.6XOXLXIXPXIXDXDX",
"NXIX3Xz ! } nXBX+XC.6.w.w.2.2.2.w.a.s.a.).Q.l.D.l.l.y.e.w.r.w.#.5.&.Y @.p.).6XS.J.h.+X|.KXGXHXGXbXbX",
"2XJX#X< [ 4XNXmX<Xv.&.:.&.=.r.i.s.a.a.z.a.a.a.c.u.u.<.:.>.<.<.=.-.&.E U ^ F.+X` 7X|.+XXXLXvXVXVXVXBX",
"fXKX.X< [ 4XNXUXzXB.) Y G G N B M N A $.$.+.>.i.c.y.<.,.=.,.=.*.*.Y Y 5.T K d.>X>X|.|.|.vXxXVXvXpXpX",
"fXZXV.% j.kXlXmXnX$Xv.q.7.s.s.a.a.a.t.w.;.#.,.>.c.1.<.=.=.*.*.%.=.G U 5.A # # h / } oX,XVXDXDXVXBXBX",
"jXwXj.% | UXlXmXCX0Xb.7.7.s.s.s.s.s.w.w.w.w.r.i.r.,.=.=.=.*.o.o.F G X.5.W c 6 . O l / |..X+Xg.+XrXuX",
"jX0X.X   .UXmXlXcXiXG.5.@.U A $.M N N X.o.=.7.<.<.=.%.%.*.X.F X.m o.7.&.x 6 h V : g a ~ 9 : 8 ` =X=X",
"fXZX$X% ~ lXmXCXnXAX7XF.b.0.4.s.#.*.;.6.e.<.=.*.:.*.o.%.X.F N N X.=.c.E 3 O O s z l p l : $ j .XOXOX",
"fXdX@Xw D j.oX@X>XyX=Xd.C.h.4.9.6.w.t.y.l.y.c.:.=.o.F F F N N U =.=.:.@.x + # : i p u l f k ~ =Xn.{ ",
"fXfX#Xw = % % w J | / K 8.f.8.9.7.7.7.t.u.u.<.=.*.F m m M B N X.1.y.7.G 3 + # . f g p p g k ~ j.d.' ",
"tXrX0X;X@X@X@XV.=X! 0 0 K ^ ) 8.3.U #.p.;.*.o.F m m m B n N o.6.y.y.*.H 7 + @ * g z a a l e = k .XOX",
"iXfXrXrXwXqXqX:X| l o $ t t c v M b M M M m G n m m m m F o.w.x.e.y.5.H 5 # @ $ g p u a g a J m.xXvX",
"rXrXeX;XfXfXK.j.a $   . O . O 3 b A A n n m m m G F F X.+.w.y.l.7.7.&.b 5 4 $ X g u i g > k m.xXpXxX",
"5X5XjX*XwXB.J %     o - o . . + b 4.3.A I F I Y o...o.*.>.w.e.7.:.7.E c 4 # : $ p u z f > ~ =XBXiXpX",
"7X7X5X&XL.P.y %   - - 1 1 . . # 3 W 3.T I G G Y X.X.o.=.1.c.c.c.7.) H 7 # * : ; i g f 8 0 ` 7XaXBXvX",
"rX7X5XK.P.j.= % - - - - - .   . + C 3.3.Y Y Y Y o.o.%.=.1.1.<.:.7.T y # # $ : , a g a 0 J OXaXaXpXpX",
"pX*X&XJ.K.)   X   - - - - o X . 3 S T 5.5.@.&.&.*.=.=.<.<.<.=.:.7.H 4 # * * ; , g a 9 k g.8XgXaXsXvX",
"rXK.*XK.*Xv.. =   - 1 - - $ % = O 3 v ^ E @.*.Y *.%.=.<.<.<.<.:.q.v X # 0 : $ , a a 0 / 7XBXtXtXaXvX",
"5X&X*XK.K.P.k   = $ $ 1 ; 1 - X @ # y C E &.&.*.o.=.=.=.:.k.k.) t r = $ X . : 9 i : / ,XvXBXtXaXBXpX",
"*X*XwXK.$XB.J % % % % ; ; ; % X X # 7 H @.&.*.%.%.%.=.:.:.&.G y = & X o X o : a k Q ,XvXuXiX8XsXvXsX"
};
