/* XPM */
static char *_0334fa535fe410eb8cc67c60b8ef904AG5cYigyeC8FpZys[] = {
/* columns rows colors chars-per-pixel */
"50 50 138 2 ",
"   c #740D00",
".  c #7B0E00",
"X  c #6B1502",
"o  c #6C1A05",
"O  c #761201",
"+  c #7A1400",
"@  c #731B05",
"#  c #7C1A04",
"$  c #771709",
"%  c #751C0B",
"&  c #7B1C0B",
"*  c #7C1F10",
"=  c #7E2007",
"-  c #73230E",
";  c #7B220E",
":  c #762512",
">  c #7E2213",
",  c #7F2C1A",
"<  c #7B301B",
"1  c #821602",
"2  c #831B06",
"3  c #8A1B06",
"4  c #831E0B",
"5  c #891E0A",
"6  c #921E0C",
"7  c #8C1F13",
"8  c #862007",
"9  c #8B2107",
"0  c #85220C",
"q  c #8A230D",
"w  c #85280F",
"e  c #8E280F",
"r  c #92230E",
"t  c #94290F",
"y  c #842413",
"u  c #8B2513",
"i  c #842A12",
"p  c #8D2A13",
"a  c #84271A",
"s  c #8E2718",
"d  c #852B1B",
"f  c #8C2B1B",
"g  c #932512",
"h  c #992614",
"j  c #932B16",
"k  c #9A2B15",
"l  c #902418",
"z  c #932D1A",
"x  c #9B2E1A",
"c  c #8E3016",
"v  c #80331F",
"b  c #8C311A",
"n  c #95321B",
"m  c #9A331D",
"M  c #93391F",
"N  c #A22E1C",
"B  c #A3341D",
"V  c #A9351C",
"C  c #A4391F",
"Z  c #8E2E20",
"A  c #962F21",
"S  c #9A2E21",
"D  c #823420",
"F  c #8E3323",
"G  c #933322",
"H  c #9B3522",
"J  c #943825",
"K  c #9D3A23",
"L  c #953B29",
"P  c #9C3B2A",
"I  c #9C3E32",
"U  c #A33522",
"Y  c #AA3524",
"T  c #A23B26",
"R  c #AB3B24",
"E  c #A23629",
"W  c #A43D2A",
"Q  c #AA3D2A",
"!  c #B53F25",
"~  c #B33E2D",
"^  c #A63F30",
"/  c #AA3F31",
"(  c #9E4027",
")  c #9B422D",
"_  c #9F4135",
"`  c #AD4026",
"'  c #A5422C",
"]  c #AA432D",
"[  c #B34025",
"{  c #B1422D",
"}  c #A44432",
"|  c #AC4532",
" . c #A64A35",
".. c #AD4A33",
"X. c #AD4739",
"o. c #A74C3E",
"O. c #AD4A39",
"+. c #B24532",
"@. c #BA4533",
"#. c #B24B35",
"$. c #BA4B35",
"%. c #B04638",
"&. c #B44D3A",
"*. c #BB4D3A",
"=. c #AB513C",
"-. c #BA5034",
";. c #B5513B",
":. c #BB533D",
">. c #C24D3C",
",. c #C05237",
"<. c #C3543E",
"1. c #C9573F",
"2. c #C5593F",
"3. c #B54F40",
"4. c #BB4F42",
"5. c #B65242",
"6. c #BC5542",
"7. c #B45946",
"8. c #BD5943",
"9. c #B4564A",
"0. c #B7594D",
"q. c #BB5A4A",
"w. c #BB5D51",
"e. c #C25542",
"r. c #C95544",
"t. c #C35B45",
"y. c #CA5A45",
"u. c #C15548",
"i. c #C55C49",
"p. c #CA5D4A",
"a. c #D05D4B",
"s. c #C65F50",
"d. c #C6604A",
"f. c #CE614D",
"g. c #D3634D",
"h. c #C46453",
"j. c #CF6452",
"k. c #D66955",
/* pixels */
"< v d : y K E B N Y @.1.r.,.-.-.-.#.] ' ] ] ] ] ' m m H m c H ] ' T ` ..;.:.:.;.#.#...] ' ' ] #.W U ",
"v D , : s P +.Q @.@.>.>.,.,.-.2.:.;.#.#.#.:.:.;...T m m m m ] 8.#.| ....#.#.#.....] ' ' ` ] #.#.-.#.",
"- % o X $ z E Y @.R Y R ! C R +.+.] ' ' ] ] ..] K x q 0 q j ' :.] T m m m m K m ` T m m W ' ' ' ] Q ",
": - % ; s E / +.{ R Y R ! Y C ` { ] ' T ] ] ] ' T m c j z m #.t.| ..] ' ] ' W C ..' K T ] #.] W T m ",
"o X @ y f n H H x h x Y C k 3 1 9 8 2 0 e p j p e p e e e n T ] m K m m m n q # 2 +   + e j e 4 u u ",
"L J L  .5.&.%.#.$.+.@.e.<.{ k q e p j m T ] ] ] ' #.#.| | #.;.;.:.&.:.:.&.' m q 0 0 0 p m T ' T | | ",
"; = & w p u 4 q x u q h k 5 .   O + + # 0 e u e q n z q 8 q q 8 q q e u e 0 #     O + 2 q u p p u s ",
"7. . .O.;.| | #.t.@.] $.e.e.>.e.i.t.8.i.i.d.t.8.8.d.d.#...#.#.| ....#.;.:.:.:.:.8.i.i.d.t.t.t.d.:.;.",
"m c e p m ( m c e m T T E / Q U | m z T ] ' ( ' m W ' z z ' ` p T T ' T K K T T m T ` T K T K z H F ",
"#.' m c n c e 8 m ' &.&.%.4.e.%.2.#...;.:.:.;.:.#.:.#.m m m m 0 j m ' #.;.:.:.:.#.;.#.' ' ..#.] ' P ",
"#.` C m M C ( M y H } W E ~ %.%.t.#...-.:.:.:.:.;.t.:.] T ] ' m e n ' #.-.#.#.#.:.#.] T W ] #.' ' P ",
"{ ` k j n C ( ( n } &.| / / u.u.8.;.;.;.:.:.:.:.] #.#.' m T T n m ] ;.:.8.;.;.;.;.#.' m T #.| W } I ",
"` B t 9 8 9 w w n ) } P S H E / T H m m m ' T K ' ] ' m e q 2 2 c n m T ` ' ] +.m M z j j m j q d a ",
"V B k t e c c c b M b y 4 7 l 7 m K K m m ( T m C ' ' T m c j m m m n t 0 q p z j m m m n m z w y y ",
"[ [ [ ` ` ' ..=. . .P G A P E S &.:.:.#.#.:.:.;.m ' | ......;.t.d.:.;.] m n m m ] :.t.:.#.#.#.} } I ",
"2.2.,.#...' ' '  .W n s A S S 7 p n m p e m m z ' ..#.#.....#.:.] ] ' m z p c z 0 n T n q 0 j p Z a ",
"P } ' P W X.+./ 4.%.E s u F J n K T K c c c c p m ' ..' ( ( ] ;.:.8.#.c e n n e c n m K m M z c d d ",
"o i G Z z S S S E S l & & y > ; i p w # = 0 0 8 # 0 c n n n K ' n ( n = # 0 e 8 # O # # # # # # % % ",
"; J o.O./ / / / *.3.X.^ ^  . .) w p p 0 9 i p w = w n ( ' ' ' ' ;.8.;.....;.;.| w p p p c n m M d d ",
"_ 7.h.h.s.s.i.u.u.u.6.&.7.0.7.=.K '  ... ...' ( '  .] =.8.8.;.=.( ' ] ' K ' ' M m m ' ......#. .=.=.",
"% ; 0 y s H A 7 7 x A s G J G i ( ;.8.8.8.;...K & + O # w e e 8 w z m m M ' ' M ' ' =.:.d.:.:.;.> > ",
"b f y u P X.X.E %.%.3.3.5.q.7.O.n ' ......] m p w 0 8 0 c M ( M p M ( ] ..#.#.#.K ' #.:.8.;.#...b Z ",
"y y y & y S A s 4 y 7 * s f s y n K T K K ' m n O + + # 8 w 9 w = 0 e c z n c n p c z n M n c c & % ",
"5.q.q.&.X.X.} ^ } X.X.X.O.5.5.O.' ] ' T T | #...] | #.;.#.#.{ ] t.:.:.8.:.;.#.#...' ' K ( m ' ' ;.5.",
"s 4 4 f s y y f u s s f f z z l H j g m m m x m z q 2 z T m m x m p c T ( n c M w p q p m q # p z z ",
"A z s f s $ $ 4 $ y b W X.3.3.&.W m m U T T T W U j r n k q + O 2 # 0 m ] ' ' ..m K n n T c w K z s ",
"%.%.X.X.H y & y $ y J } &.3.3.%.@.] Q ] +.+.@.:.$.+.{ &.@.Q z r 0 # 0 K ......' K ( c n K n p K ] | ",
"3.4.4.O.P d y y d J } 3.5.5.3.%.W x j x m U Y ] ] ] | @.&.R j q K m M ..8.d.#.' ' ] K n ' ' ' #.} +.",
"E E W H s y ; ; % 0 s J P E / Q *.| E Q +.+.@.:.$.*.:.*.+.T j 3 8 8 0 j ' ] K e p m p 0 c m M ] *.*.",
"E E H A F F F b v b b f A S S S U h r j k j x H k x U x j g 3 + c c p n m K p # p m c 0 n m m ' x k ",
"/ / E A J } ) F =.=.o.O./ ^ / Q y.,.$.:.e.*.*.<.*.e.y.*.:.y.p.e.:.:.7.#.#.#.' n ..:...' ..#...#.:.*.",
"E E u # y b b - % % w y s s l j U x h x N k g j N T B 5 3 r h q q c c e p n c q c ' c 8 w p 8 q z k ",
"4.&.&.:.#.} } =.=.;.=.=...=.=.] #.$.$.#.R C { 2.Y -.y.<.$.$.,.:.:.-.:.:.;.' T W T ` ] #.| ] T m K T ",
":.| ' | ..| ....c M M c c M M c T V R ! V k k Y k R { V N V ! ] R W ' ] ] U x m e e j x C m m z w w ",
"Q j 2 2 0 2 + O O = 8 = 0 w c 0 9 r B R { R V R R Q V t 3 3 r k q 2 3 e q 2 2 q q 5 2 e m W C z m ( ",
"y.#.R T W T H H m ( ' ( '  ...' ] [ { y.g.g.y.<.y.y.,.R C Y { ] :.@.] #.&...@.*.+.W U W -.:.-.| ' ' ",
"Q U Y Y Q Q ] *.z K T K M C ( m Q U U { $.{ Y U { { Q U Y { @.+.:.] W W | W W W H j 4 u H W W z ' ' ",
"+.~ @.$.@.| @.e.` { #.] ....{ ' +.~ { >.y.y.e.e.y.y.e.$.>.p.y.:.e.| W ' / W K W W H H T ..:.&.O.' T ",
"g 6 6 h N h h x 1 5 9 2 1 8 8 # . . 1 g x x x B m k 5 3 g B x g H s 4 u s u 4 & O . O $ 4 4 4 4 0 0 ",
"h 6 h ~ r.p.p.p.] @.#.{ #.;.;.+.T Q Q $.+.T x m U m k x +.f.k.j.6.} W } ..| W P G H H H G n n l u s ",
"@.>.r.a.y.e.$.{ +.@.$.:.:.:.@.#.U | #.4.*.X.Q E | #.*.%.4.p.i.4.} } O.q.q.3.o.3.z G G P ^ P P z H U ",
"Y Q ~ @.>.$.>.*.{ | #.;.#.#.@...&.6.i.p.e.6.4.#.| %.+.Q / #.#.W W P P } } ^ ^ X.P P }  .o.O.o.| W Q ",
">.$.%.>.$.$.*.:.H H T T T K K m U ^ X.| X.W W W 4.*.*.X.+.&.%.^ P Z Z G J f Z L f Z G J L P P P j j ",
"N x k h g g e q x x z j p p 0 w S H H P S z S z s u y 4 4 4 y 4 G f f f f a a Z d s f s u a y s x x ",
"E W ] +.#.| ] ] ' ' ( K m c i i u s z l s y 7 s X./ E P E P S S G Z Z F Z Z > a $ * * * $ $ % * x m ",
"U U T T K m n j ' ( ( M n b c p A G S P S A A A ^ H S S A s 7 * Z d Z F Z Z , Z * Z F G F F L ^ W Q ",
"t.:.*...' K m c c c c i w i w i X.3.3.4.3.X.X.X.3./ } 3.X.H l s a a > a a * * Z I 3.9.w.0.0.w.h.*.6.",
"T K n p e w w e 0 0 0 w w w i i s z G G A s s s Z s s G H y 4 & s * $ $ $ $ * a $ * F L Z Z A G z n ",
"#...| ] ] ....#.' ' ] ] ..] ] ] ' ' ' ' K T ' ..| | | +.| +.| +.} } } ' }  .} ' ( } P K ' L m o.] W ",
"n j p j j j j z j z z n m n n n c c c c p c m H x m m x x x N m n n c j m m n c j n p q z w 0 K x l "
};
