/* XPM */
static char *Y29s[] = {
/* columns rows colors chars-per-pixel */
"60 60 224 2 ",
"   c #030103",
".  c #0A0101",
"X  c #040800",
"o  c #0C0A00",
"O  c #03020A",
"+  c #090209",
"@  c #05090A",
"#  c gray3",
"$  c #130100",
"%  c #1B0100",
"&  c #180900",
"*  c #240100",
"=  c #320600",
"-  c #380B00",
";  c #221400",
":  c #2B1400",
">  c #2D1A00",
",  c #271C00",
"<  c #341C00",
"1  c #342300",
"2  c #362C00",
"3  c #3B2C00",
"4  c #3E2300",
"5  c #441200",
"6  c #5D2B03",
"7  c #572305",
"8  c #453A00",
"9  c #493205",
"0  c #5B3F10",
"q  c #533708",
"w  c #612600",
"e  c #73320A",
"r  c #544104",
"t  c #574407",
"y  c #684604",
"u  c #695605",
"i  c #725D0A",
"p  c #654614",
"a  c #6F5B14",
"s  c #7F5312",
"d  c #72620C",
"f  c #776300",
"g  c #7E6726",
"h  c #824213",
"j  c #894A18",
"k  c #8E5B1C",
"l  c #97571E",
"z  c #914B10",
"x  c #B94F01",
"c  c #B75708",
"v  c #A34F13",
"b  c #B25617",
"n  c #A75317",
"m  c #856B18",
"M  c #8B761C",
"N  c #BA630B",
"B  c #B96418",
"V  c #894E24",
"C  c #914C25",
"Z  c #9C562A",
"A  c #985E2C",
"S  c #AC5D22",
"D  c #856E25",
"F  c #977F29",
"G  c #887533",
"H  c #B56826",
"J  c #A87728",
"K  c #C25603",
"L  c #C75C01",
"P  c #C15610",
"I  c #C26300",
"U  c #CC6C01",
"Y  c #C9600D",
"T  c #C96B08",
"R  c #CB7402",
"E  c #CC7D03",
"W  c #CB7506",
"Q  c #D27B01",
"!  c #D37908",
"~  c #C26E18",
"^  c #CB7510",
"/  c #D26C0A",
"(  c #C66F22",
")  c #C97925",
"_  c #AF991F",
"`  c #928127",
"'  c #B8972D",
"]  c #A38233",
"[  c #AA9434",
"{  c #AD8B2D",
"}  c #B7A13B",
"|  c #CD8302",
" . c #CB8A00",
".. c #D48302",
"X. c #D48A03",
"o. c #DA8B03",
"O. c #D4820A",
"+. c #D68B0A",
"@. c #DB8C0B",
"#. c #CD9200",
"$. c #D59300",
"%. c #DC9302",
"&. c #D49C01",
"*. c #DC9B02",
"=. c #D5940C",
"-. c #D38112",
";. c #D29914",
":. c #E19C03",
">. c #E39806",
",. c #DCA403",
"<. c #D5AC00",
"1. c #DDAB02",
"2. c #D9A706",
"3. c #DCB102",
"4. c #D8B507",
"5. c #CFAC1C",
"6. c #D4A41A",
"7. c #D7AE1C",
"8. c #DCAA14",
"9. c #DBB314",
"0. c #DEB21D",
"q. c #E2A403",
"w. c #E4AC02",
"e. c #EAAC01",
"r. c #E2AC09",
"t. c #E8A703",
"y. c #E5B302",
"u. c #EAB401",
"i. c #E6BA02",
"p. c #ECBC02",
"a. c #E1B30B",
"s. c #E8B60C",
"d. c #E8BC0E",
"f. c #F0BF03",
"g. c #E1B413",
"h. c #E6BA18",
"j. c #CE8324",
"k. c #CD952A",
"l. c #C78C30",
"z. c #CC9733",
"x. c #D5A428",
"c. c #CEB02E",
"v. c #D4B82A",
"b. c #DBB528",
"n. c #C3A135",
"m. c #D5A939",
"M. c #D7B834",
"N. c #E2B822",
"B. c #E6BA26",
"V. c #E0AD37",
"C. c #EBB734",
"Z. c #ECBB32",
"A. c #E1BE3E",
"S. c #EEC203",
"D. c #EDCE02",
"F. c #EEC30B",
"G. c #EAC40F",
"H. c #F2C403",
"J. c #F2CC05",
"K. c #F2C50C",
"L. c #F3CB0C",
"P. c #F8CC0C",
"I. c #F8CE06",
"U. c #EDD201",
"Y. c #F2D004",
"T. c #ECC314",
"R. c #ECC21C",
"E. c #EDCB1A",
"W. c #F2C612",
"Q. c #F4CB13",
"!. c #FACB14",
"~. c #F3C61B",
"^. c #FAC71A",
"/. c #F3CC1C",
"(. c #FACB1B",
"). c #F8C311",
"_. c #FAD21A",
"`. c #F9D110",
"'. c #E4C123",
"]. c #EBC623",
"[. c #EBC825",
"{. c #EBC42B",
"}. c #E6CA2E",
"|. c #ECCA2B",
" X c #E4C628",
".X c #F3C525",
"XX c #F4CC23",
"oX c #FCCC21",
"OX c #F4C52C",
"+X c #F4CD2C",
"@X c #F9CE2A",
"#X c #FCD323",
"$X c #E2C435",
"%X c #EBC534",
"&X c #EDC53C",
"*X c #EBCC38",
"=X c #EBCA38",
"-X c #F5CC33",
";X c #F5C23C",
":X c #F3CC3A",
">X c #F9CB36",
",X c #F5D138",
"<X c #BFAC46",
"1X c #BFA656",
"2X c #D5BA40",
"3X c #DCBD48",
"4X c #C1A953",
"5X c #CBB152",
"6X c #CDB14C",
"7X c #E0BF62",
"8X c #D6C048",
"9X c #E5C64F",
"0X c #EBCD46",
"qX c #F3CC42",
"wX c #F0CE48",
"eX c #F2D34D",
"rX c #F3D549",
"tX c #E5CA57",
"yX c #EDD355",
"uX c #EBD05B",
"iX c #F4DB59",
"pX c #F1D359",
"aX c #E6C968",
"sX c #F1D365",
/* pixels */
"        O                                                                             O O               X               ",
"                    O                                                 O                                           +     ",
"    O       O   O                                                 O         +     O         O                   O       ",
"                        O   +                   .       .                 O                                             ",
"    O   O   +                   .                                     O           +                 X     X             ",
"                      O     O                                                         O O                             O ",
"+               O                                                 O                                             O       ",
"        O                 O                   .                       O                       + X                       ",
"      O         +                                                                                         X             ",
"            O                                                                                                           ",
"  O                                                                                                                 O   ",
"        O                                                                                                       O       ",
"          O +       O                   X                                                             X               O ",
"                  O                                                                                                     ",
"            O                                   X             X                                                   O     ",
"+                   O                                 o . .     . .                                                     ",
"  . O         O       O                 @     . . & 1 t d d d i r 1 & . .     +     o             X                 O   ",
"      O +   O       O                 # X     2 G 1XaXsXuXiXiXyXuXtX1Xg 2 . .     +         O +             @           ",
"    O         O     O                   . 3 [ 9XrX,X}.|.[.]. X}.}.}.=X0X8XM , $ .       X                               ",
"    O     .                     X X . $ a 7X0X+X/.Q.Q._._./.XXXXE.E.E.]. XeX5Xt $   X X     . .       X           O     ",
"    O +   .                           ` yX:X.X^.^.P.I.I.Q.(.(.oX_.T.@XOXh.'.$XtXm . o   X   . .                 @       ",
"    O     .   .             O     . [ iX|.~.oX).!.P.I.Y.P.P.^.(.Q.#X.XOX>X+X'.b.9XM . .   X . .       X       X         ",
"  O O O         O   O         . $ ` yX'.Q.W.oX^.W.P.Y.U.Y.!.!.K.Q.~.>X:X-X:XZ.%Xb.9XD . o     +                 O       ",
"  O O +                     . $ u tX|./.!.P.^.Q.L.U.U.Y.Y.J.P.!.(.oX-X,XqXqXqX&X{.b.7Xq .   + +         @               ",
"  O O O         +   O       + < 3XZ.E./.Q.Q.L.Q.U.U.U.U.U.D.J.P.P.Q.+X:XwXrXwXqX;XC.c.6X;   .             X             ",
"  O O O       .           X $ M 0XoX/./.Q.L.G.D.D.D.U.U.D.D.S.I.J.P./.|.,X*X:X:X;XZ.0.A.g . .                         O ",
"    O             +     X o > 5X%XW.Q.Q.L.Y.Y.Y.L.L.Y.L.K.K.K.J.H.K.R.]. X[.|.OXZ.Z.b.v.6X, .                     O     ",
"  O               +         d wXR.F.L.L.Q.Q.Q.Q.Q.Q._.Q.P.I.H.H.H.H.T.T.T.T.h.B.B.B.b.5.M.u .                           ",
"                . +     X   ' *XE.L.L.Q._./.XX_.(.(.(.Q.K.H.H.I.H.f.S.S.i.s.h.h.B.b.0.7.M.{ . .                       O ",
"          X X   . +       ; M.E.L.L.Q././.+X+X,X@X@XoX(.K.H.H.H.f.p.p.i.i.s.s.h.9.9.8.8.6.n.;               X           ",
"        @         +       2 $XG.L.W.E./.|.+X,X,XqX,X+X/.L.H.H.f.p.p.i.i.u.s.y.3.1.a.r.*.,.m.9 .   X               O     ",
"            @ O   +   X   8 *XS.L.Q./.XXXX-X,XqXwXqX+XE.K.p.f.f.p.p.i.y.s.w.3.1.<.<.1.*.*.m.p .                       O ",
"O         O @ O       X   r ,XF.Q.W.Q./.#X+X:XqXqX-X.XW.F.p.i.S.i.u.u.i.y.1.1.1.<.<.&.&.&.x.p . . +                     ",
"O   X     O     + +   X   r =XF.F.E.Q.Q.XX+X-X:X>XOX~.W.S.p.p.p.i.y.y.e.y.1.1.1.,.&.&.$.#.x.p . .               O       ",
"O X             O O       8 %XS.F.L.Q./././.XXXX.XW.d.K.f.p.u.u.u.y.w.1.q.q.:.*.*.*.$.X.X.k.p . .         O           O ",
"                  +   +   2 $XS.F.L.F.W.E.Q.W.G.F.K.f.f.p.u.u.u.e.e.1.,.q.q.:.>.%.%.o.o. .z.q . .                       ",
"O       +     X O O O O   ; M.G.F.F.K.F.F.S.S.S.S.p.p.p.f.u.e.e.e.t.,.,.,.*.>.>.o.@.o.Q O.l.< .                 O       ",
"O                 O O     o _ R.d.F.S.H.H.S.S.H.S.p.p.p.f.e.e.e.e.q.,.,.*.*.%.@.o.+.Q E -.J %                           ",
"                  + O O # . f *Xd.i.f.H.H.S.p.H.H.p.u.u.u.e.e.t.q.q.:.*.&.$.X.+...E E W j.h $ +         O           O   ",
"O     O +         O O O #   3 2Xh.p.p.p.H.p.f.f.p.i.u.y.e.e.q.q.:.*.*.*.&.$.X.| E R R E H 6 .             + O           ",
"O + O                 +   . $ `  Xi.d.d.f.p.f.p.p.s.y.y.e.w.q.:.:.%.*.*.X.X.Q Q E I I ~ A *               O       O     ",
"+                     . O # . 9 $Xa.s.i.u.f.p.p.p.y.y.s.w.w.q.*.>.%.$.X.X...Q R U N N H q $ +                           ",
"+         +   @             . $ m A.9.4.i.i.i.y.u.e.y.w.r.q.q.*.%.%.o.o.Q Q U L x c B V % . .   .                       ",
"+ .     O           .   O O + . & [ M.4.3.i.i.e.y.e.w.r.2.q.:.%.>.o.o.Q ! / Y L x b Z = . +   .     + O     O       O   ",
". .     O             .   @ O   . : } v.4.<.a.r.w.w.w.,.>.*.*.%.@.....Q / P P x S S - % .   +           +       +       ",
"      O   O         + +   O   O # . 1 ' c.7.g.,.2.q.q.q.*.*.=.@.! ! Q U L P c n C 5 % . +                   O           ",
".   O O O         + O             o . : J m.6.8.,.&.*.*.%.@.o.O.! W U I K b v h = $ $     @ @   O                   O   ",
"      O               + +   X       . + $ y ' x.6.;.=.=.=.@.! ^ ~ B N c b v w * . +                             O       ",
"      O     O       + O               . . $ : y J ' z.k.j.j.) ( H S l j 6 = $ . + O + +         .             O         ",
"                                  X     # . . $ & 4 0 j k k z h e 7 - * $ . . +     O     .         O             O     ",
"                  O               . + O O O   .   . . . $ $ % % % % . .   X             .                               ",
"          O           +             + @ O O O @   X .                               . .                   O           O ",
"+                               O O O O O O O O               + O O O O @         . .       O   O                       ",
"        +         O         + O   O O   O O + O     + + .     + O O O           . . .     O O O           +             ",
"      O                         O       +           O             . . .         .   +   O   O O O     O                 ",
"            O         O                       + +   +   O       . . . .     + .                             O   +     + ",
"                O           O                     O O O O O     . . .       O O         .   . . +       O         O +   ",
"  O                                     .   .       O O O               O O O   @         . .   .           +           ",
"      O       O   + O           O       .       +     O     .         O O O O O         .   .   + O O           O       ",
"          +               O       O         .   . . + . . . .   O O O O O O O             .   + .           O           "
};
