/* XPM */
static char *c275f30f64fb417bce46a89c0eb55875yKDcRl9V3ACudWQ1[] = {
/* columns rows colors chars-per-pixel */
"50 50 188 2 ",
"   c None",
".  c #E3961F",
"X  c #E79F1D",
"o  c #EC9B1D",
"O  c #EDAD16",
"+  c #E7A01B",
"@  c #EEA31D",
"#  c #ECA91A",
"$  c #F1AC17",
"%  c #F0AE1D",
"&  c #EFB215",
"*  c #F2B515",
"=  c #F4BC11",
"-  c #F2B51D",
";  c #F3BA1D",
":  c #E78723",
">  c #E68A24",
",  c #E88D23",
"<  c #E38F28",
"1  c #E29322",
"2  c #E99423",
"3  c #E79A23",
"4  c #EB9B22",
"5  c #E79428",
"6  c #E99728",
"7  c #EC9D28",
"8  c #EDA220",
"9  c #EDAF26",
"0  c #ECA22A",
"q  c #EDAA2D",
"w  c #F7AC27",
"e  c #FBAD26",
"r  c #F2A529",
"t  c #F5AB29",
"y  c #FBAE28",
"u  c #EDB52D",
"i  c #FCB427",
"p  c #F1B22D",
"a  c #FBB32B",
"s  c #FCBB2B",
"d  c #F8AD31",
"f  c #F6AF3A",
"g  c #F4B432",
"h  c #FBB435",
"j  c #F2BD33",
"k  c #FCB935",
"l  c #F2B13D",
"z  c #FBB63C",
"x  c #FACB07",
"c  c #F6C40E",
"v  c #F8C60D",
"b  c #FACC0B",
"n  c #FBD20E",
"m  c #F6C313",
"M  c #FACD11",
"N  c #F5C31C",
"B  c #F7C91B",
"V  c #FACF19",
"C  c #F9D017",
"Z  c #FCDE16",
"A  c #F7D11C",
"S  c #FAD31A",
"D  c #FCDE18",
"F  c #F1C325",
"G  c #FDC22D",
"H  c #F6CB2D",
"J  c #FDCA2F",
"K  c #FBD223",
"L  c #FCDF21",
"P  c #FAD42C",
"I  c #FBDC28",
"U  c #F5C634",
"Y  c #FDC730",
"T  c #F5CA34",
"R  c #FDCF31",
"E  c #F8CB3B",
"W  c #F7D236",
"Q  c #FCD534",
"!  c #FDDC36",
"~  c #FBD73E",
"^  c #FBDD38",
"/  c #FCE025",
"(  c #FCE12C",
")  c #FCE233",
"_  c #FEE53A",
"`  c #FFEB3B",
"'  c #F3B147",
"]  c #FBBA44",
"[  c #F0B64F",
"{  c #F5BD49",
"}  c #FABC4B",
"|  c #F2C044",
" . c #F8CD4A",
".. c #F9D141",
"X. c #FBDA44",
"o. c #FBDD48",
"O. c #FBC054",
"+. c #FBC258",
"@. c #F3CC5C",
"#. c #FCCB5C",
"$. c #FAD750",
"%. c #F7DA55",
"&. c #FCDD54",
"*. c #FAD059",
"=. c #FCDE58",
"-. c #FCE443",
";. c #FCE54B",
":. c #FCE753",
">. c #FDE759",
",. c #FCE85C",
"<. c #F6C262",
"1. c #FBC764",
"2. c #F7CF63",
"3. c #FBC965",
"4. c #FBCA6B",
"5. c #FBCD72",
"6. c #F7D076",
"7. c #FBD174",
"8. c #FBD17A",
"9. c #FCE166",
"0. c #FCE965",
"q. c #FCE26C",
"w. c #FDEA6A",
"e. c #FCE372",
"r. c #FDE577",
"t. c #F9E276",
"y. c #FCEB75",
"u. c #FCEC7C",
"i. c #FBD585",
"p. c #FBDB85",
"a. c #FBD789",
"s. c #FBD98B",
"d. c #FBDC94",
"f. c #FBDF9A",
"g. c #FDE782",
"h. c #FDE785",
"j. c #FDE883",
"k. c #FBEC82",
"l. c #FBE58F",
"z. c #FBEC8B",
"x. c #FAE190",
"c. c #FDEB97",
"v. c #FDEC97",
"b. c #FBED91",
"n. c #FBE09D",
"m. c #FDEB99",
"M. c #FDEE9E",
"N. c #FBF09B",
"B. c #FBE1A0",
"V. c #FDEEA1",
"C. c #FBEAA0",
"Z. c #FBE6A9",
"A. c #FEEFA9",
"S. c #FBECAB",
"D. c #FCF1A5",
"F. c #FDF2AD",
"G. c #FBEAB3",
"H. c #FBEFBD",
"J. c #FEF1B3",
"K. c #FCF3B4",
"L. c #FEF3BE",
"P. c #FEF4BE",
"I. c #FCF3BC",
"U. c #FEF5C2",
"Y. c #FEF5C5",
"T. c #FDF4C1",
"R. c #FEF7CC",
"E. c #FFF9CF",
"W. c #FEF8D2",
"Q. c #FEF8D4",
"!. c #FFF9D1",
"~. c #FEF9D9",
"^. c #FFFBDF",
"/. c #FFFBDD",
"(. c #FFFBE1",
"). c #FFFBE3",
"_. c #FFFCE3",
"`. c #FFFCE6",
"'. c #FFFCE4",
"]. c #FFFDEA",
"[. c #FFFDE8",
"{. c #FFFDED",
"}. c #FFFEEE",
"|. c #FFFFF3",
" X c #FFFEF0",
".X c #FFFFF4",
"XX c #FFFFF5",
"oX c #FFFFF8",
/* pixels */
"                                      oXXX].(.~.Q.Q.~.(.].|.                                        ",
"                                XX(.Y.m.e.%.~ Q P P Q X.&.e.m.L.(.                                  ",
"                            }.Y.h.X.V b x x x x x x x x x x x K o.j.U.                              ",
"                        }.P.9.K x x b b b b b b b b b b b b b x x x K 9.J.                          ",
"                    XXW.e.A x b b b b b b b x b b b b b b b b b b b b x K q.Y.                      ",
"                  }.A.Q x b b b b b b x b b b v v v b x b b b b b b b b b x Q m.                    ",
"                `.j.V x b b b b b b b = & X 1 . 1 < 1 . X O = b x b b b b b x A q.                  ",
"              (.e.b b b b b b b m O 1 < 5 6 0 r r r r 0 6 6 < 1 O m b b b b b b b $.                ",
"            _.q.x b b b b b v O > 5 0 w i i i i i i i i i i i r 5 1 O v x b b b b b ..              ",
"          ].r.b x b b b b = . < 0 i i i i i i i i i i i i i i i i t 5 1 = b b b b b b E             ",
"        |.v.C b b b b b & 1 3 i i i i i i i i i i i i i i i i i i i i t 1 & b b b b b b U           ",
"        P.P x b b b b O < r i i i i i i i i i i i i i i i i i i i i i i t 6 # x b b b b M           ",
"      _.&.x b b b n & < w i i i i i i i i i i i i i i i i i i i i i i i i a 6 # b b b b b =         ",
"      M.C x b b b = < t i i i i i i i i i i i i s i i i i i i i i i i i i i i 7 * b b b b b -       ",
"    /.X.x b b b v 1 0 i i i i i i i i i i i i G ` T i i i i i i i i i i i i i y 7 c b b b b c       ",
"    V.M x b b b # 6 i i i i i i i i i i i i i Q ` _ p i i i i i i i i i i i i i g u b b b b b $     ",
"  ].>.x b b v c 1 y i i i i i i i i i i i i G _ ` ` U w i i i i i i i i i i i i i l m x b b n =     ",
"  Y.K b b b x # 7 s i i i i i i i i i i i i Q ` ` ` ) p i i i i i i i i i i i i i k j b b b b m @   ",
"  c.b b b b v 1 w i i i i i i i i i i i i G _ ` ` ` ` T w i i i i i i i i i i i i a { B b b b b $   ",
"}.q.x b x n = 6 i i i i i i i i i i i i i ! ` ` ` ` ` _ t i i i i i i i i i i i i i ] H x b b b *   ",
"/.X.x x b b # 7 i i i i i i i i i s s G P _ ` ` ` ` ` ` W G G s s i i i i i i i i i k  .x b b b = o ",
"R.P x b b b + t i i i i i G R Q ) _ _ ` ` ` ` ` ` ` ` ` ` ` ` _ ) ! Q J i i i i i i i *.C b b b v o ",
"L.A b b b v 3 y i i i i s ) ` ` ` ` ` ` ` ` ` ` ` ` ` ` ` ` ` ` ` ` ` ` g y i i i i i #.K x b b v o ",
"A.S b b x v 3 i i i i i i Y _ ` ` ` ` ` ` ` ` ` ` ` ` ` ` ` ` ` ` ` ` T 0 i i i i i i #.Q x b b b o ",
"F.L Z Z Z C 3 y i i i i y i Y _ ` ` ` ` ` ` ` ` ` ` ` ` ` ` ` ` ` ` U 0 i i i i i i i #.~ b b b b @ ",
"F.L D D Z S 6 y y y y y y y y Y _ ` ` ` ` ` ` ` ` ` ` ` ` ` ` ` ` U r y i i i i e i i #.o.n n n b @ ",
"K./ Z D D S 0 t y y y y y y y y G _ ` ` ` ` ` ` ` ` ` ` ` ` ` ` U r y y y y y y e e e 3.;.Z D D Z @ ",
"Y.( Z D D D q d y y y y y y y y y G _ ` ` ` ` ` ` ` ` ` ` ` ` U 7 y y y y y y y y y e 7.-.Z D D S 4 ",
"W._ Z Z D D u l y y y y y y y y y y ! ` ` ` ` ` ` ` ` ` ` ` _ q w y y y y y y y y y i p._ Z D D S 2 ",
"`.>.Z Z D D F ' y y y y y y y y y a ! ` ` ` ` ` ` ` ` ` ` ` ` p y y y y y y y y y e z x./ Z D Z B , ",
"  u.Z Z D D A [ y y y y y y y y y i _ ` ` ` ` ` ` ` ` ` ` ` ` U w y y y y y y y e e +.h.D D D D - , ",
"  D./ D D D Z | ] e y e y a y y y G ` ` ` ` ` ` ` ` ` ` ` ` ` T r y y y y y y y y i a.,.Z D D D @   ",
"  E.-.Z D D Z H <.i y y y y y y e Y _ ` ` ` ` _ ^ _ ` ` ` ` ` W r y y y y y y y e ] C.( D D D S 2   ",
"    y.Z D D D D @.} y y y y y y y Q ` ` ` ` W p r i Q _ ` ` ` _ q y y y y y y y y a.y.D D D D ; ,   ",
"    K.( Z D D Z P 6.h y y y y y y ! ` ` W g r t y y y s Q _ ` _ q y y y y y y y +.A.) Z D D S 8     ",
"      w.Z D D D Z %.4.y y y y y y Q ^ p r y y y y y y y i s Q ^ q y y y y y e z Z.0.Z D D D N ,     ",
"      K.) Z D Z D D t.3.e y y y y i w w y y y y y y y y y y y a r y y y y y h f.z.L Z D D S @       ",
"        u.D D D D D / h.1.y e y y y y y y y y y y y y y y y y y y y y y e h f.V.( Z D Z D - >       ",
"          o.Z Z D D D ) b.5.a y y y y y y y y y y y y y y y y y y y e y ] n.D.) D D D D B 2         ",
"          b.I Z D D D D I z.d.] y y y y y y y y y y y y y y y y y e y 3.G.M.) Z D D Z S 4 :         ",
"            2.S D D D D Z / w.S.8.z a y y y y y y y y y y y e e a O.n.I.u./ Z D D D Z @ :           ",
"              | S D Z D D Z D -.b.J.s.+.h y y y e y y y y a ] 4.B.L.N.;.D Z D Z D D w :             ",
"                p S Z D D D D Z D ;.z.K.G.n.i.5.3.1.4.8.s.Z.H.I.b.:./ Z D D D D S 8 ,               ",
"                  8 B D D Z D D Z Z Z ) >.u.N.D.K.K.K.F.N.j.>.) D Z Z D D D D B o :                 ",
"                    2 - S D D D D D D Z Z Z D / I ( ( / D D Z Z Z D D D Z D ; 2 >                   ",
"                        @ N D D D D D D D D D Z Z D Z Z D D D D D D Z D N 4 : :                     ",
"                          , 8 N S D D D D Z Z D D D Z D D D D D Z S N 8 , ,                         ",
"                              > 4 # N S D D D D D D D Z D Z S N % 4 > >                             ",
"                                  , , 2 4 @ - - ; - - - 8 4 , , > ,                                 ",
"                                          : : : > : : : : , ,                                       "
};
