/* XPM */
static char *e2f88bdc036143f59f1f0049253394f5OvJEhjKv2V0GS4GH[] = {
/* columns rows colors chars-per-pixel */
"50 50 256 2 ",
"   c #261908",
".  c #1C2D07",
"X  c #1A3401",
"o  c #183701",
"O  c #023100",
"+  c #38230A",
"@  c #243A08",
"#  c #392B18",
"$  c #2B3512",
"%  c #3E3421",
"&  c #091A00",
"*  c #472A09",
"=  c #47361B",
"-  c #4D3415",
";  c #733D15",
":  c #473725",
">  c #4D3627",
",  c #1C4400",
"<  c #195A00",
"1  c #2B4B02",
"2  c #274706",
"3  c #334A0A",
"4  c #2B5705",
"5  c #335402",
"6  c #365A08",
"7  c #354A15",
"8  c #355414",
"9  c #3B5916",
"0  c #294811",
"q  c #2B6406",
"w  c #346B02",
"e  c #3A6506",
"r  c #397602",
"t  c #3B6415",
"y  c #3C7513",
"u  c #2D7E00",
"i  c #375224",
"p  c #2C6B10",
"a  c #455919",
"s  c #4D4F19",
"d  c #7A431D",
"f  c #69421B",
"g  c #426D04",
"h  c #44680B",
"j  c #497709",
"k  c #456C14",
"l  c #456818",
"z  c #536919",
"x  c #4B7517",
"c  c #557A1A",
"v  c #54730C",
"b  c #48462B",
"n  c #584628",
"m  c #584A36",
"M  c #5A5238",
"N  c #4C542B",
"B  c #654A29",
"V  c #69532B",
"C  c #75552C",
"Z  c #624E35",
"A  c #675539",
"S  c #775836",
"D  c #754C30",
"F  c #466723",
"G  c #586828",
"H  c #497325",
"J  c #567927",
"K  c #557537",
"L  c #646537",
"P  c #697A3A",
"I  c #696F2C",
"U  c #6B5C4C",
"Y  c #665844",
"T  c #725A50",
"R  c #5C6844",
"E  c #73624C",
"W  c #766547",
"Q  c #786957",
"!  c #7B745B",
"~  c #6E6D4A",
"^  c #7D7563",
"/  c #7F6F60",
"(  c #565040",
")  c #853E10",
"_  c #8A4719",
"`  c #975019",
"'  c #A2571B",
"]  c #B1651F",
"[  c #854A23",
"{  c #87572C",
"}  c #9A5927",
"|  c #845734",
" . c #A65D27",
".. c #A35F30",
"X. c #966739",
"o. c #8F6331",
"O. c #A4632B",
"+. c #AD6A2D",
"@. c #A76629",
"#. c #B36D2C",
"$. c #B66B26",
"%. c #B6722D",
"&. c #A86933",
"*. c #B26D32",
"=. c #A9733C",
"-. c #BA7534",
";. c #C36D27",
":. c #C6762B",
">. c #C27C34",
",. c #CB7C35",
"<. c #C67937",
"1. c #D07E32",
"2. c #836A4B",
"3. c #9B7645",
"4. c #836C58",
"5. c #83745B",
"6. c #8A7859",
"7. c #937B59",
"8. c #8D7046",
"9. c #A87946",
"0. c #B67B45",
"q. c #AB7E51",
"w. c #837362",
"e. c #8A7A66",
"r. c #937B65",
"t. c #8B7970",
"y. c #3C8A05",
"u. c #4A8607",
"i. c #56890B",
"p. c #4A9805",
"a. c #5B9704",
"s. c #578617",
"d. c #548D12",
"f. c #668B19",
"g. c #69961A",
"h. c #6D9910",
"j. c #68A507",
"k. c #70AD17",
"l. c #5A8426",
"z. c #53892C",
"x. c #648B25",
"c. c #6A952A",
"v. c #698737",
"b. c #779437",
"n. c #729630",
"m. c #72A52C",
"M. c #4EA000",
"N. c #7A9548",
"B. c #748B4C",
"V. c #7CA246",
"C. c #8AA733",
"Z. c #8A9E3B",
"A. c #CC833B",
"S. c #C98236",
"D. c #D3843B",
"F. c #DB8C3A",
"G. c #D58838",
"H. c #DE923C",
"J. c #E3923A",
"K. c #E08F3C",
"L. c #859A4B",
"P. c #988456",
"I. c #889855",
"U. c #908F57",
"Y. c #A5854B",
"T. c #BA8648",
"R. c #B88858",
"E. c #B19256",
"W. c #85A747",
"Q. c #8FAB55",
"!. c #BCA358",
"~. c #8C8567",
"^. c #98866A",
"/. c #8D8472",
"(. c #938574",
"). c #9C8B7A",
"_. c #978977",
"`. c #9A9578",
"'. c #979D6B",
"]. c #A7976A",
"[. c #A28C77",
"{. c #A7967B",
"}. c #B09774",
"|. c #98A768",
" X c #99AE6D",
".X c #AAAC70",
"XX c #CA8844",
"oX c #D78B42",
"OX c #C89758",
"+X c #D49D57",
"@X c #CC904D",
"#X c #E49444",
"$X c #D7A45C",
"%X c #C69764",
"&X c #D2A865",
"*X c #D3B370",
"=X c #E4B56F",
"-X c #E0A255",
";X c #E1C07D",
":X c #9C9583",
">X c #9E8D82",
",X c #A29482",
"<X c #AD9B85",
"1X c #AA9989",
"2X c #B29C88",
"3X c #AA9A92",
"4X c #AC988F",
"5X c #ABA389",
"6X c #B7A689",
"7X c #ACA492",
"8X c #BCAB9A",
"9X c #B8A896",
"0X c #BDB598",
"qX c #B4BC83",
"wX c #B9ACA4",
"eX c #BCB6A6",
"rX c #ADA2A0",
"tX c #C3AC96",
"yX c #C3B29B",
"uX c #CBB49D",
"iX c #C8B799",
"pX c #CBB58F",
"aX c #CCBAA5",
"sX c #C8B7A7",
"dX c #D3BCA8",
"fX c #CAB3B0",
"gX c #B8C689",
"hX c #CFC894",
"jX c #CDC4A9",
"kX c #D4C2AA",
"lX c #D7C6A8",
"zX c #D5C5B4",
"xX c #DBCAB3",
"cX c #DDCCBB",
"vX c #D7C6B6",
"bX c #DAD3B8",
"nX c #D0CFB0",
"mX c #E3CCB9",
"MX c #E5D3BC",
"NX c #E7D4B8",
"BX c #EADDB3",
"VX c #EBE5BB",
"CX c #D4E0BA",
"ZX c #D9BCC0",
"AX c #D8CAC6",
"SX c #DCD4C6",
"DX c #E8D8C5",
"FX c #F2DCCA",
"GX c #EADAD7",
"HX c #EED4D3",
"JX c #F6E1CB",
"KX c #F7E6D6",
"LX c #F1EAD1",
"PX c #FFF7E6",
"IX c #FCE7E8",
"UX c #E8DAE4",
/* pixels */
"X 0 @ X O 0 8 2 5 F i o 1 e 1 $ 1 7 9 9 J x 1 a g 5 @ 7 3 1 2 2 0 8 X @ R N . $ , @ X o p z.< O . i ",
". @ 0 2 0 8 2 o 1 a 9 8 k h 6 8 1 3 9 4 h j 1 8 k h 9 9 a 5 8 9 1 3 8 8 8 3 1 1 6 3 @ o 8 y p , & . ",
". o o 0 i H y t 2 4 w w y t e j t 6 t e j v h l h l F 9 6 6 9 t h 5 k h 1 h c 4 y t 3 2 0 4 0 0 $ $ ",
"7 $ X X , 4 4 4 p w r r w q y d.c t k x j j j k 6 l F 9 h h h 5 h h c k w l.c.q w k a 8 p , o @ $ . ",
"i 7 7 3 2 , , q H r p.d.y q h i.x e e s.u.w r h t l l y v s.x 1 5 H J t q x x w r k l 8 4 2 o $ 0 , ",
"o 2 9 t t 4 t l q w d.s.k 4 6 e e 6 4 d.a.j v l.h k l x s.f.v 5 e H t 1 t k q 4 r k 3 2 1 8 8 N H i ",
"o 2 4 3 1 1 2 1 4 4 H H e 5 a a e x e j c.g.c.n.g v x s.i.s.j k s.k 4 5 H z 6 5 k l 1 @ 4 t l a p p ",
"t q 4 , 2 3 9 a h t K J g v v.~ g x.h g g.k.c.c v c l.s.j j s.J c g g k h 6 k z q 6 3 @ t z.t @ q q ",
"t < t b 2 7 N 4 l i 6 w j l.J g j x.e j k.d.d.a.H r u.a.a.j.k.k.c l j.c.v g H r z I.G 3 F z a s s V ",
"H < 6 ~ H a ~ u.c 9 1 e f.x.l.s.w H H d.k.g.l.x x.x x.n.g.g.k.k..XN.a.M.p.k.~ z 5XQ.w 4 G 2.v.x.F 8 ",
"t u w G 4 k .Xm.i.l.c g f.H l.c.|.~ B.k.h.f.'.gXb.c Z.B.B.N.N.v.|.W.j.p.p.i.P I yXN.p.c.U.^.c a.R 9 ",
"l.p.s.z < l..Xm.j.Q.V.f.c.L.L.Z.jX! B.j k.I.eXIXhXgXBXbXSXLXnX|.u.i.f.b.b.J f.k.L.n.k.W.I P e r J a ",
"B.y.c.v.r H L g a.m.s.f.n. XB.I E rXCXc.k.qXfXIXuXsXIXfXAXIXbX].n.m.Z.|..XN.g.p.p.g.Q..Xj u.4 9 z z ",
"F q c.P y z.V J h.x.v m.v L N s kXIXLX|.hXPXAXAX9XyXIX8XeXvXiXqXlXhX|.m.m.b.n.v M.g.E.|.u.u.t N q w ",
"i y.c.x r V.~.Q.m.x.V.C.c.L /.).NXIXUXkXuXFXfXlXtXtXJXtXlXkXtXzXZXpX`.Q.v.K C.C.k.n.I c h r s.J y y ",
"B.d.6 v m.m.U.W.d.y W.k.Z.[.UXUXP.fXUXHX6XAXtX}.pX].lX}.BXkX4XAXvX.XfXKXyXR j.k. XQ.b.L.Q.b.b.d.l.e ",
" Xa z h b.v n.c L.I.VX(.% DXPXsXhX^.pXxXdX9X4.2.Z Z 7.S [.[.DXKXwX5XlXJXFX:X! P |..Xx.Q. Xc v.U.s z ",
"I.~ G 5 v h z h b.gX.X= U vXzXJXxX2X6XiX7.B n * D D 8.* B A tXvX).mXlXuXfX>X~.U.gX Xz b. Xx.1 a L P ",
"M $ 7 P I.I.U.L.'.A n 5XPXtXr.5XjXDX^.- - f 3.R.OX0.R.%X}.C n n dXxX}.w.t.sXxX].B.G G W.t t F 0 b b ",
"! E ~.0X'..X.XP U.{.).dXdXzXJX6X^ ).Y ; X.q.0.-.$.<.<.T.&X*XE.V lX<X[.2XHXDX2X}.5X XN G R '. X'.`._.",
"MX^.A 0X9X! ~ ^.e.0X4.8XaXtXmXPXeX> > &.} +.<.S.S.H.G.%.@.OX!.E.* n KXKXZXFXmX2.1X:X> Q eXDXvX7Xe.~.",
"4.uXU m /.7X^.~.e.8XE w.<X9X6XdXt.- | @X>.<.:.1.G.$.S.#XG.%.T.=XP.V yXcXuXr.w.4XT Y Q 7XAXnXfXt.^.^.",
"2.aX).(._.E A Y m _.JXFXdXwX8X4.+ | 9.@.:.D.1.1.S.G.G.%.:.,.A.%.%Xn = >X{.uXDXGXfX4X3X^ eXAX:X>X`.^.",
"uX7.W zXsX! A + / e.PXzXDXDXKX4X* 9.XX0.] :.#X1.A.A.F.S.H.G.1.$.q.7.: vXKXLXcXGXtXQ DX^ ^ SXeXB.~.! ",
"Y A E 4.r.Q 9XjXwXU t.`.tX2X6X2.S 0.1.;.;.:.oXoXG.H.S.F.G.G.G.] ..R.> <XzX9X{.6X! U fX:X( ~ /.Y = = ",
"Q dXdX2XE :XnXAX3X>XwX<XiXuXtX> X.@X1.1.1.<.F.F.G.H.G.F.G.G.G.$.} }.n ~.8XuXiXkXaXm m ! Y b % M /./.",
"sXzXyXmXaXbXSXAXrXfXPXDXNXFXFX7.8.OX,.;.;.,.oXK.H.J.G.H.G.G.oX#._ R.S sXKXFXDXKXKX{.`.DXDXSX~./.GXAX",
"bXhXjX.X5X<XbXLX9X,XcXkXxXuXdXr.3.OX:.;.<.,.oXJ.H.#XH.H.G.G.oX$._ R.S tXHXtX2XyXsX1X6X0XsXLXsX`.DXeX",
"hX.XpX].P.! qXKX9Xw.t.r.[.[.2Xm E.OX:.;.:.,.oXJ.#X#XF.H.F.G.oX#.) %X> T [.r.{.[.t.U {.<X8XDXbX(.jX`.",
"BX.X]..X8.L n ~ > e.DXdXMXFXcX> E.$X,.;.<.,.K.J.J.#XF.H.F.XXoX#.) q.D r.mXZXDXNXdX5.^.6..XxXxX/.~.~ ",
"L 2.S A m 1X`./.4.>XMXyXaXFXPX1X!.OX<.;.:.:.G.J.#X#XF.H.F.F.oX#.` 0.S 2XPXHXmXdXmX<X6X6X6X6X! > N = ",
"5.n E e.jXGXGXAX1X5.{.5XuXyXsXQ Y.@X;.;.;.:.G.J.#XJ.G.H.F.G.oX#._ q.n 2.fXuXuX[._.Y A P.6.M + w.9X).",
"jX).{.AXeXwXGXeXt.Q >X4XaXyX2XZ !.*X!.!.!.!.&X$X&X&X$X+X$X+X%XR.0.q.n M 8X4XkXyX8Xm w.8XQ m /.SXuXtX",
"lX'.! 8XAXsXwXeX/ 3XPXKXyXMXKX^.].*X*X;X;X*X=X$X=X=X$X+X+XOXT.3.0.q.n 5XKXHXMXnXvX7XvXSX1X/.SX5X2.W ",
"dX5.U /.wX5X`.7XY 3XKXvXdXtX2XZ E.*X$XOX$X$X$X#X$X$X+X@X@X@XT.X.=.q.B 6XKXmXtX5X>XT 8XsXQ % :XN m > ",
"n n E # # 5._.M : Q w.Q 1X2Xr.Y Y.E.%.' O.&.XXoXA.A.A.G.XXT.T.=.` o.n ~ 8X{.6X{.w.Y vX>X( ^ wX_.(.Q ",
",X^.pX^.W A Y Z : Q AXDXDXJXFX4.=.E.#.]  .+.<.,.A.D.S.1.A.<.-.&._ | B ! zXdXFXFXAX>X8X/.~ 3XeXSXjXt.",
"^.2.}.lXBX6.5.xX>XtXKXDXdXaXdXr.9.R.-. . .&.<.A.,.A.G.S.A.S.-.+...3.- 2XFXFXmXmXJX! % Y U U /.eXSX_.",
"V 7.}.}.lX[.6XvX4.w.,X2XtX[.4.> Y.@X$.' `  .<.A.:.S.>.S.,.,.<.-. .X.* ^.fXtX,X[.,XY U U U / 7X7XAX^ ",
"C V P.P.P.n 2XfXw.T ,X2X<XdXuX> 8.T.#.' } ..-.<.S.S.S.:.:.<.-.-...X.> Y tX4XuXtX).> SXeXt.R ! `.:Xi ",
"m b ( U ~ ! ^ ( # 1XmXdXmXJXPX4.o.=.-.' } } <.$.-.>.>.,.<.>.-.#. .| > :XIXFXmXuXmXr.e.kX6Xb ! m % % ",
"w.M ^ nXPXeX:X7XU ).dXlXdXdXDX).X.=.*._ _ _ 0.:.%.-.-.-.-.-.#.#.+.X.> 3XKXdXtX2X2XA Z ].5.% ^ `.5X{.",
"+ /.fXt.7X:XwXeXw.Y w.r.[.^._.> X.=.@._ _ _ -.%.%.%.-.-.*.#.*.#.` { * U 4X[.[.7.S - V P.S L ~.5XyX9X",
"Q wX3X% Q B.wXnX3Xe.9XtXuXmXfX( | &.+._ { _ 0.$.%.%.%.%.*.*.+.+.@.&.n (.xXtXuXdXaXW n V = s # m {.{.",
"U e.M : ^ :X7XGXt.r.dXdXdXFXDX4.C X.@._ [ [ *.+.$.%.+.+.*.+.&.+. .[ - ,XDX6XtXMXFXQ E {.~.Q = b b m ",
"+ U E A Y ! (.sXZ Y [.[.r.2X9X> C X. .d d d =.#.+.@.+.+.+.&.&.O.@.X.+ Y {.r.}.2X7X/.vXPXNXxX5.  m A ",
"W Z m n n # # : # m 4.r.r.e.t.+ C o.} d d d =.@.@.@.@.@.O.O..... .8.+ > w.r.2X,XQ Y 6XlXpXNXlXZ 8XjX",
"{.^.^.Y 6.Q e.m : 4XDXNXdXdXAXQ B o.o.d [ d X.` O.O.O.O. .O... . .| = ,XFXdXmXHXDX5.{.hX6X6XNX].`.7X",
"].W 2.7.6XiX}.].b (.NXdX2X2X2XT D S W S D S S | | | | | | | | | [ | > 4.tXtXtXmXmX| }.*X6XlX5Xb M A ",
"P.W A W P.6X[.^.= Z r.6.2.7.4.* B Z S C D C S C C | S | | | | { [ D = m r.2.4.r.}.> 7.q.8.7.M   M A "
};
