/* XPM */
static char *a4406773e66249a296cbde54bf1ba8b3NlU6xOji8w7kCQvl[] = {
/* columns rows colors chars-per-pixel */
"50 50 243 2 ",
"   c #1A3B1E",
".  c #1D3923",
"X  c #2D3D2B",
"o  c #36392B",
"O  c #353B33",
"+  c #3C3C35",
"@  c #3A3A36",
"#  c #2B3D31",
"$  c #433B36",
"%  c #453D3A",
"&  c #4C3C3C",
"*  c #4A3835",
"=  c #523E3C",
"-  c #573B3B",
";  c #1C4927",
":  c #28462B",
">  c #37432D",
",  c #29552C",
"<  c #2C4434",
"1  c #254B31",
"2  c #2D4C34",
"3  c #2D4C3C",
"4  c #274634",
"5  c #344435",
"6  c #3C4433",
"7  c #334C34",
"8  c #36453A",
"9  c #3D443C",
"0  c #344C3B",
"q  c #3B4C3C",
"w  c #3B4C34",
"e  c #2C5235",
"r  c #2D553C",
"t  c #2C5B3B",
"y  c #285635",
"u  c #325236",
"i  c #34543C",
"p  c #3C533C",
"a  c #345B3D",
"s  c #3C5A3D",
"d  c #325B36",
"f  c #34592D",
"g  c #2D6538",
"h  c #35653D",
"j  c #1D4C1E",
"k  c #424534",
"l  c #4A4234",
"z  c #44443C",
"x  c #4B453C",
"c  c #444B3C",
"v  c #4A4B3D",
"b  c #464B36",
"n  c #54443D",
"m  c #544B3C",
"M  c #5C483E",
"N  c #43523C",
"B  c #4C523D",
"V  c #405A3D",
"C  c #56513E",
"Z  c #6A473F",
"A  c #573E42",
"S  c #723F44",
"D  c #3B4D41",
"F  c #354A42",
"G  c #345342",
"H  c #3B5343",
"J  c #355C42",
"K  c #3C5C44",
"L  c #3C5C4A",
"P  c #3C564B",
"I  c #2E5741",
"U  c #3C6344",
"Y  c #3C6A45",
"T  c #3D634A",
"R  c #3D6B4A",
"E  c #366246",
"W  c #3D7448",
"Q  c #3C6351",
"!  c #3D7153",
"~  c #4D4542",
"^  c #444B43",
"/  c #4C4C44",
"(  c #4D4E48",
")  c #454541",
"_  c #534443",
"`  c #5B4645",
"'  c #544B43",
"]  c #5B4C44",
"[  c #554C4A",
"{  c #5B4B4A",
"}  c #594548",
"|  c #445343",
" . c #4B5243",
".. c #435C44",
"X. c #4B5A46",
"o. c #4C544A",
"O. c #435D4A",
"+. c #4B5B4B",
"@. c #43564A",
"#. c #545344",
"$. c #5B5245",
"%. c #54544B",
"&. c #5B534B",
"*. c #545B4B",
"=. c #5B5A4D",
"-. c #565A45",
";. c #584D51",
":. c #4A5B51",
">. c #5C5452",
",. c #595A53",
"<. c #624543",
"1. c #6B4445",
"2. c #644B44",
"3. c #6B4A45",
"4. c #624C4B",
"5. c #6C4C4A",
"6. c #69444A",
"7. c #734544",
"8. c #734B46",
"9. c #744C4C",
"0. c #7A4D4C",
"q. c #764749",
"w. c #6B5346",
"e. c #63534C",
"r. c #6C534C",
"t. c #66594B",
"y. c #73524C",
"u. c #7A524D",
"i. c #725A4E",
"p. c #644D51",
"a. c #6A4C51",
"s. c #744D51",
"d. c #7D4C51",
"f. c #6C5351",
"g. c #6C5A53",
"h. c #655654",
"j. c #735351",
"k. c #7B5353",
"l. c #7B5954",
"z. c #765956",
"x. c #426445",
"c. c #496346",
"v. c #42634C",
"b. c #4C634D",
"n. c #436A4C",
"m. c #4B6A4E",
"M. c #446C45",
"N. c #56644D",
"B. c #44724D",
"V. c #47784A",
"C. c #446451",
"Z. c #4A6252",
"A. c #456B52",
"S. c #4C6C53",
"D. c #4B6B59",
"F. c #5C6552",
"G. c #526B54",
"H. c #576859",
"J. c #4B7453",
"K. c #4B7B55",
"L. c #4E735B",
"P. c #4D7B5A",
"I. c #447653",
"U. c #537255",
"Y. c #53745B",
"T. c #5B745C",
"R. c #547C5C",
"E. c #5B7B5B",
"W. c #537A55",
"Q. c #636959",
"!. c #64755B",
"~. c #73685D",
"^. c #567562",
"/. c #5B7D62",
"(. c #587761",
"). c #536B64",
"_. c #627C65",
"`. c #697966",
"'. c #747B68",
"]. c #677977",
"[. c #707274",
"{. c #81474B",
"}. c #814951",
"|. c #825353",
" X c #845659",
".X c #4D8456",
"XX c #53835B",
"oX c #558959",
"OX c #56945C",
"+X c #49844C",
"@X c #62815F",
"#X c #5A8463",
"$X c #5B8B63",
"%X c #598767",
"&X c #5A9664",
"*X c #4F8062",
"=X c #648365",
"-X c #63846A",
";X c #628E6C",
":X c #6A866B",
">X c #74866D",
",X c #62956D",
"<X c #669A69",
"1X c #698D71",
"2X c #748974",
"3X c #6C9C74",
"4X c #6A9776",
"5X c #74977A",
"6X c #5EA063",
"7X c #66A16A",
"8X c #6BA574",
"9X c #75A87C",
"0X c #72B179",
"qX c #848877",
"wX c #7E7D82",
"eX c #807F84",
"rX c #798685",
"tX c #7E9886",
"yX c #7F9290",
"uX c #7AAA83",
"iX c #7CBB85",
"pX c #858589",
"aX c #8A9697",
"sX c #95959A",
"dX c #968C94",
"fX c #84B789",
"gX c #8BAE8F",
"hX c #949BA5",
"jX c #9B9EAB",
"kX c #9A9DA7",
"lX c #95A0A4",
"zX c #9CA2AC",
"xX c #9BA4A9",
"cX c #9FA4B0",
"vX c #A1A4AE",
"bX c #A2ABAE",
"nX c #A2A5B2",
"mX c #A6A9B4",
"MX c #A7A9B8",
"NX c #82C48A",
"BX c #8DC994",
"VX c #93CC9B",
"CX c #A1CCA3",
/* pixels */
"O + 9 ^ 8 0 H C.Q Q r E Q Q G F P D.O.L :.@...2 E ! P.I.m.T.M.R.v.A.< 0 O.G.< v.K K Y.S.u K T.G.e t ",
"O + 9 ) @ O 0 :.).D.3 4 G P F # D F 4 H H.T.v.u *XP.P.U S.G.K n.v.0 2 4 . O.s 4 n.#XC.J.U i s n.T A.",
") / / ( @ X O D @.H 8 D P ^ ) ( D 3 < ^ H.(.O.i %X%X/.a G.m.x.R.G K T L i v.J 4 T %Xt E x.s R e J m.",
"$ ~ _ ( @ + + ) D 8 ^ ^ ) @ @ ^ H 3 8 # ^ Z.i 1 L S.T X K d : K s T Q J D.A.K J P.I.R R v.U #Xr < ..",
"@ ( [ ~ @ ) 9 8 8 F H 3 O D q D L 0 D @ 9 :.i 4 p ..7 2 m.Y.7 O.H 0 r J ^.^.L.r tX! *XK.h Y %XR i 0 ",
"* %.[ ) o @ + # 4 4 G L G D.D.^.Q G ^ o./ H i 0 # 5 7 H n.Y.7 p q o.H G (.T.v.1 ,X&X%XR t 5X,X%XL 0 ",
"$ ( / ) @ D F D 3 3 Q L.Q ^.C.D.G F | :.9 < 8 8 c N H.Z.v.K 5 w z H. .5 @.p 0 i L.-XR.E g fX,X$XT G ",
"^ o.( ^ O O 8 @.D G P O.F :X@.5 8 F 0 D H ^ *.9 o.9 T.Y.S.A.O.c z & _ h./ q ..7 H K m.T y B.R *XT S.",
"o.o.o.z ) ;.:.( O H.h.) $ * n n z D @.Z.8 8 k ~ *.X H T J H.>X%.= 5.6.<._ z w +.o 6 B f Y E j E.J Q ",
"/  .( o.) 9 A @ @ A { { M <.3.3.= z D L 0 9 * & #.8 A.L.L.(.H.=.f.6.q.d.r.v c N C l v c.$XuXs   e K ",
"' ' [ [ ) A @ A ~ * } e.4.3.y.5.5.[ F @.@.*.&.{ 6 0 T R._._.7 =.z.5.0.k.g.#.| 6 m m =.`.-X,Xs u K O.",
"' ' ] n A A A ) _ [ >.{ e.e.r.e.f.{ c 9  .=.&.%.9 0 e T -X_.q *.r.j.0.3.e.=.B c ~.e.v F._.U.s 2XS.x.",
"_ ' ' _ A ~ ~ A ) o.o.| `.F.-.#.e.4.m ~ #.&.=./ b.K 2 i ^.Z.G.H.m t.] $.B *.w F.qXQ.b o F.b.G.5XS.u ",
"&.&._ % % ) ~ 9 9 F < 0 :XG.p B =.e.4.e.&.=.'.Y.v.T 3 7 O.K _.H.v C -.b.p X.N >X!.N  .b b w S.=Xs e ",
"%.%.) k + ) ^ ^ H 0 < 7 /.G.V N -.e.3.8.<.&.2XP.J J 2 p ..K S.m.N B R.B.a ..G.`.T.u p v / k s a V.XX",
"| ^ c ) ) 9 9 D @.H H 2 S.S.U.b.| &.z. X5.#./.J J s 0 X.v.A.i a s ..3XI.e T :X!.=XU.p w *.*.e 1 K.,X",
"9 ( %.$ /  .&.c p R.2Xm.B.K.R.#XY.q &.] h.N 2 L.R A.L.E J J C.D.R.XXn.R.L G 2X`.!.N V V ;XR.U , J.K.",
"( ( / $ ) ' #.b 7 W.:X=XI.Y K.M.E m.|  .B 6 0 5XS.^.P.1 r y 4 I..XB.=XT.q D @.Z.^ p M.W.8X$Xn.e 7 d ",
"} [ x * l ' v  .s m.-XT.E Y E.J.J./...G.b...w T.Y.P.%Xt t R J Y.B.d T.*./ %.5 V b c.W.3X9X$XR...c v ",
"6.4.& $ $ (  .b.i i `.M.e R E v./.v.r B.J S.X.b S.Y.#Xr E P.n.r a 7 v ] >.%.9 H V m.XX9X,XR.Y.b.z ~ ",
"6.a.A % x ,.O.K e 7 U.u 1 A.T S.S.a B.! a x.B b b.XXM.f #X3X#XY 2 N n 5.f.n c p d M.B.3XXXa J p O @ ",
"6.{ & D %.H.T e K S.v.J u n.R.(.n.n.%XR A.s k #.c.x.> w =X3X9XR.i v 4.9.k.f.| s h Y Y R.R e 2 3 F F ",
"A _ / ^ :.b.E t Z.T.Y.%XO.O.A.T L v.b.7 K p m t.!.p b C !.4X9XP.H ~ 6.q.z.z.b.a W.$XK.U E S.A.H 4 F ",
"~ [ %.o.+.H v.G.+.9 L._.q H C.! G 7 v v | v r.m N w m l N.1X$Xn.c >.6.d.4.' b.t $X5X1Xc.G.5X-XA.r P ",
") / ,.%.+.q @. .v x H.G.+ ( `.(.8 ( 6.A ~ &.f.e. .-.] m w e a U.H.p.s.s.f./ U.$Xm.5X:X: H.gX4Xy R R.",
"^ ( %.' z c v ' r.] X.b.] &.`.o.9 A 6.6.4.e.f.5.x l r.' b.x.b.F.x ` k.z.t.v S.,XT ..F.> X.1XJ.d oX<X",
"^ o.{ } x ] &.5.3.4.b =.M * #.b } 6.q.}.z.f.s.j.g.&.h.c 0 K N l [ ` j.i.t. .J.-XG.o c  .V i j g oX7X",
"z >.4.6.` f.r.y.z.r.x $.g.M x n z.s.d.|.z.f.9.y.e.,.k N 7 O.&.g.g.r.k.y.t.B X.G.X. ./ k > e h +X+XOX",
"~ { 4.<.- 5.5.2.m v b k B t.C Z j.s.0.q.u.j.y.4.h.'.| T.G. .n j.5.w.l.u.t.l b / $ / ) N.m.M.oX0XoX<X",
"~ ;.} = - 9.r.e.Q.:X>XN.w !.C M r.y.d.9.8.y.5.m X.=XY.T.`.-.w.z.w.3.y.Z y.] $.} _ % ( b.W.@XOXqXoX<X",
"_ [ { = <.5.g.*.XXR.U.U.K.gX'.Z i.i.y.y.0.8.M k x.XX,Xm.=.M r.r.i.w.8.Z u.u.z.f.4.;.%.< h 7X0X<XM.oX",
"} [ ;.A <.4.&.w *XW x.XXK.$X!.m t.w.w.y.0.y.2.b x.P.5XN.o w.y.<.Z Z |.0.u.8.j.f.a.{ o.T.@X@X<Xf : s ",
"} p.;.} A ` &.| U.V..XuXfX5X> B t.y.w.8.8.u.Z b M.U.U.b w.l. X3.u.y.y.0.u.8.y.w.r.t.b '._._.V N b x ",
"[ [ 4.p.A _ %.w x.I.3XuXuXgXV B w.y.y.0.0.|.Z l N.c.b m 3.q.9.k.y.5.8.8.8.y.u.y.w.$.m '.Q.Q.c *.e.5.",
"[ [ { } n x v : e K..XoX$X3X>X6 w.0.k.u.|.|.w.n Q.F.' y.0.d.q. Xs.s.9.9.0.0.8.9.w.w.] g.$.#.' e.5.5.",
"o %.%./ x v -.c.f Y .Xg V.;X>X-.5.0.y.9.0.|.y.w.$.e.5.y.}. Xs.k.k.j.d.0.d.0.9.9.y.y.2.n = n 4.f.s.8.",
"q p b b k F.>X@Xg h g g h x.U.!.<.9.9.9.9.s.j.5.n <.s.q.d.d.k.5.s.s.s.s.d.d.k.j.y.j.5.M - 3.j.s.d.k.",
": , U.'.w N !.h W.&Xg 8X3XE.G.F.M 3.y.y.9.9.5.5.j.5. Xd.}.S a.5.a.s.s.s.s.s.s.s.j.5.5.r.j.9.9.s.8.0.",
"j V.gXCX@Xf s M.oX.X&XiXuX9Xh w B e.r.y.9.9.5.5.r.2.q.d.q.9.j.r.a.j.a.9.9.9.5.3.5.5.4.y.j.5.5.q.8.8.",
"V.OXoXoXV., , oX6XOX&X&XoXOX3XE.N -.$.5.3.5.9.j.j.j.9.k.S d.s.<.5.3.9.5.9.y.9.y.2.r.y.r.3.8.0.u.8.8.",
"oX7XfX&X, g .X<XOX0XiXNXOX6XVXuXE.C C i.|.|.0.0.5.y.y.1.|.u.u.8.u.8.y.|.0.0.u.u.y.u.y.y.y.y.0.0.8.y.",
"6XBX0X$Xh Y V.W &XNXVXNX7X0XBXuXE.N.C 8.0.{.0.u.l.1.5.9.y.8.8.0.l.u.8.8.1.8.|.|.u.y.8.8.u.u.0.8.8.0.",
"6XiXoX&XoX.X;XOX8XiXVX8X<X&X8XVX3XN.M 8.{.{.{.|. X9.u.y.8.8.0.Z Z Z 8.|.u.q.7.q.q.8.q.8.8.{.0.Z q.7.",
"OXOXXX9X#XV.,X*X.X&XiX8X0X<X.X9XfX!.m Z {.{.0.7.6.q.9.3.y.u.|.8.y.w.Z 8.u.q.7.d.0.9.s.k.8.8.0.0.q.q.",
"v.s n.S.P 3 S.T M.n.$X$X9XVX.XR uXH.x <.s.k.s.s.9.k.s.6.j.r.3.r.m -.C C M 3.1.s.s.5.a.6.5.5.5.5.s.s.",
"S.P C.P D.P L D.^.a t U %XuXI.t K.J k M } } ;.;.a.a.A 6.` _ = &.Q.>X>XN.' { e.4.p.a.p.;.f.p.4.4.p.A ",
"lXtXaXyXlXrX).).O.3 J Y./.I.t ; I J +.,.%.( o.>.a.a.p.p._ ,.,.:.4X4X;Xc.8 | >.( ~ >.} ~ [ A % [ ;.;.",
"xXlXcXlXaXzXhXwX).).:.L T G E Q I C._.rXpXpXsXhXsXdXdXeX,.[.rX:.P.A.I.Y.:XrXaXpX[.sXaXwXwX[.[.pXpXeX",
"lXxXxXhXhXjXcXzXhXhXaXwXrXyXrX).wXyXlXcXcXbXcXcXcXcXzXkXkXnXaX[.).wXyXhXxXxXxXxXlXzXmXzXnXxXbXnXkXkX",
"xXxXzXlXjXzXjXjXcXnXcXjXcXcXjXhXhXjXcXcXcXcXzXzXcXzXzXcXnXMXnXhXzXcXcXhXcXcXxXcXcXcXmXcXMXnXMXnXnXnX"
};
