/* XPM */
static char *_536301993c64e7da0d02e9755267d1cz7FW5tHLx6Ef34B4[] = {
/* columns rows colors chars-per-pixel */
"50 50 175 2 ",
"   c #040403",
".  c #0C0C05",
"X  c #0E0E09",
"o  c #110E07",
"O  c #120E0B",
"+  c #14120E",
"@  c #19160F",
"#  c #0C0E13",
"$  c #070B14",
"%  c #0D1319",
"&  c #141311",
"*  c #191612",
"=  c #171812",
"-  c #1C1A15",
";  c #141519",
":  c #18171C",
">  c #1C1C1B",
",  c #14181B",
"<  c #201D16",
"1  c #221E1A",
"2  c #24221D",
"3  c #29291F",
"4  c #161C23",
"5  c #1B1E22",
"6  c #1B1F28",
"7  c #1E2124",
"8  c #1B2229",
"9  c #242423",
"0  c #292623",
"q  c #262826",
"w  c #2B2A25",
"e  c #23252A",
"r  c #28272C",
"t  c #25292D",
"y  c #2C2C2B",
"u  c #312E26",
"i  c #312E2B",
"p  c #2F302C",
"a  c #33322E",
"s  c #39362E",
"d  c #232731",
"f  c #252B34",
"g  c #2B2E32",
"h  c #272E38",
"j  c #2B2F38",
"k  c #302F34",
"l  c #2E3233",
"z  c #2C333A",
"x  c #343433",
"c  c #393733",
"v  c #373835",
"b  c #3C3A35",
"n  c #33353A",
"m  c #35393C",
"M  c #3C3C3B",
"N  c #413E37",
"B  c #413E3B",
"V  c #3E403C",
"C  c #43413E",
"Z  c #353B43",
"A  c #3C3E42",
"S  c #393F4B",
"D  c #413F40",
"F  c #3E4245",
"G  c #3D434B",
"H  c #3F4553",
"J  c #444443",
"K  c #494642",
"L  c #474843",
"P  c #4B4A45",
"I  c #43454A",
"U  c #49474A",
"Y  c #45494D",
"T  c #4B4C4B",
"R  c #514E4A",
"E  c #4F504B",
"W  c #54524D",
"Q  c #58554E",
"!  c #434954",
"~  c #4B4E52",
"^  c #474E58",
"/  c #4B4F58",
"(  c #414753",
")  c #4E5154",
"_  c #4E545C",
"`  c #545453",
"'  c #595652",
"]  c #575854",
"[  c #5B5A55",
"{  c #54565A",
"}  c #56595C",
"|  c #5C5C5B",
" . c #605D56",
".. c #615E5A",
"X. c #5F605B",
"o. c #63625D",
"O. c #69665F",
"+. c #525761",
"@. c #565B61",
"#. c #5B5D61",
"$. c #575E68",
"%. c #5D6164",
"&. c #576069",
"*. c #5D6269",
"=. c #5F6571",
"-. c #636463",
";. c #696663",
":. c #676863",
">. c #6B6A65",
",. c #64656A",
"<. c #666A6D",
"1. c #6B6B6B",
"2. c #706D66",
"3. c #716E6B",
"4. c #6E706D",
"5. c #72716D",
"6. c #79766F",
"7. c #636770",
"8. c #686671",
"9. c #656A73",
"0. c #6B6E72",
"q. c #666C78",
"w. c #6D7175",
"e. c #6D737A",
"r. c #737474",
"t. c #7A7773",
"y. c #767874",
"u. c #7B7974",
"i. c #73767A",
"p. c #757A7D",
"a. c #7A7B7C",
"s. c #817E77",
"d. c #817E7B",
"f. c #7E807D",
"g. c #83817C",
"h. c #717681",
"j. c #747A82",
"k. c #7C7E82",
"l. c #777E88",
"z. c #7B7F88",
"x. c #7D8184",
"c. c #7E848A",
"v. c #838384",
"b. c #8B8784",
"n. c #878986",
"m. c #8B8985",
"M. c #83868A",
"N. c #86898D",
"B. c #8B8B8B",
"V. c #908D89",
"C. c #95938D",
"Z. c #808791",
"A. c #878C93",
"S. c #8B8E92",
"D. c #8D9094",
"F. c #8E9299",
"G. c #939394",
"H. c #9D9B97",
"J. c #929599",
"K. c #95999D",
"L. c #9D9E9B",
"P. c #999592",
"I. c #A19D9A",
"U. c #A5A29C",
"Y. c #979CA0",
"T. c #9A9EA2",
"R. c #9FA0A5",
"E. c #A5A5A4",
"W. c #ACACAC",
"Q. c #ACA9A4",
"!. c #B1B0AC",
"~. c #A6ACB2",
"^. c #BBBBBB",
"/. c gray71",
"(. c #C6C6C6",
/* pixels */
"t.m.C.U.V.N o N P.I.s...K D b.b.s.s.R B B K b - ` ' [ R U ` ` x X.4.:.4.] p > L E p q p D M e 1 [ r.",
"g.s.s.g.g.C 3 R ....B K B B ' s.s.;.s.s.a.d.o.M O.T M x v B M w X.6.X.o.:.P p ] l p x x M M 9 9 1.1.",
"O.Q [ O. .0 < N ..Q R ' K ' ' ..' ..' 8.3...b < c c i i k c x w V O.` X.2.E = x v V M p n v w y 1.X.",
"2 2 u s 0 @ @ u i s K B c B R R R K D D ' D c k w M B v i w > + q ] X.>.:.P - 7 > q y y M v > = M F ",
"< @ @ O @ u N c O 1 i 1 1 * i i B N i i i 1 1 1 2 > 1 9 9 0 9 > & p C E c i > & M y > + : : : k q 9 ",
"o N 2.C.U.!.Q.V.U 0 0 0 D B R c * c D D ..' ' ..' b M D w ; 1 w C V E X.J ` P k & & v R ` ` ] 8.) y ",
"3 R 6.s.3.3.3.2.s.1 0 R d.V.s...B ;.d.s.s.s.;.d.>.[ 1.1.M c ] | -.o.-.1.-.1.o.Y Y T 1.p.1.>.8.;.4.V ",
"N P  .>.>. .Q  .' 1 R b.b.V.D s.D s.b.s.;.;.o.3.t.>.5.` 0 J ;.T ;.1.-.-.o.1.o.#.T J >.i.,.0.-.~ } V ",
"u C ..2...2.2...B 1 Q ;.;.s.R i p g.o.O.1.W X.:.;.[ [ M 9 J ;.` -.-.W ] 1.8.1.| D D ;.8.#.3.0.) ) y ",
"3 Q O.Q ' 2...D N 1 N D R s.' D w [ X.Q | ;.:.' o.] ` a & i [ [ ..-.[ ` -.1.1...U D 8.r.,.#.-.{ m 9 ",
"3 C Q N B  .Q N i 2 2 N R ' ' R w w [ ' C b b K M C K i > 0 J ` M T { | -.i.3.,.c U -.{ { { ,.U l g ",
"< u u N N i 1 @ 0 0 O O 1 1 k D a . w C b y w a 9 i a y 9 9 y v i k M D c J v x 1 A U D ) D D ; e r ",
"Q N 3 < 1 1 < * * 2 * * 1 * * * a y a 0 q + 0 w C B x w x i x B M r - 9 O : : 9 D M n r r ; : + g 9 ",
"O.s.s.Q 1 N 2.P.b.s.D 1 N ' ' s.:.u.6.[ C + L :.t.5.;.;.3.r.3.3.,.R v -.) ..-.8.k.k.r.~ l Y } 0.#.~ ",
"Q ..2.Q N  .s.s.b.s.' N i ' ' ;.O.' W W ' 9 W -.` [ -.1.r.3.1.-.>.| B i.8.3.i.;.8.k.J.-.l a.x.f.M.j.",
" .O.s.Q 1 N 6.s.;.s.d.D i D D R C C X.E L a ' K P ' ;.3.1.1.1.-.8.-.n r.8.i.M.,.v.k.B.{ 8 f.f.c.k.k.",
"V  . .E < a O.u.>.O...C a C W P C E W [ L v L L P W [ [ ,.| :.5.=.=.z +.e.x.h.=.&.c.e.H 5 x.f.f.p.r.",
"3 3 3 3 o = 3 w P y 2 3 = = 0 x s p p s 2 @ a P b v M v B J J M G G 8 h H H G G G G G 8 # V V @.V m ",
"V o . C X.O.W a P o.B.!.!.H.u...s 2 w V W W L C L a x [ >.>.T g z F h f G H H H f $ F G &._ v F { ) ",
"u 3 s :.2.2.:.] >.g.m.s.r.1...T P R :.:.5.g.f.u.g.Q K :.5.k.o.v _ &.h.&.q.q.=.+.F f x.x.c.f.X.x.x.p.",
"3 3 3 E E ] W C [ ' ' [ o.;.;.;.b V [ [ X.5.5.5.u.-.` -.| ,.U : G _ x.x.c.x.=.^ 8 d j.x.e.*.F <.*.%.",
"u 2 = V E O.E 2 ] [ ` [ 3.0.| U V 0 s E O.3.4.r...M B 1.r.;.D 9 F G &.=.=.&.+.F h 8 X.i.w.%.v { *.%.",
"= = = 3 = < > O 9 x x a B M r 7 b w 2 q 3 - p V c : > v U k 9 9 z h 8 h 8 4 8 8 8 # 8 8 7 4 4 F Y G ",
"X.L V V w V X.1.o.T p 9 7 1 P V.!.H.f.f.4.E v & K r.b.| U M v r Z h 4 H Z Z =.e.q.^ Y m ` %.X.~ V z ",
"] :.X.L l :.C.R.^.(.(.G.D D b.G.B.V.f.f.C.B.] q G.L.B.i.G.-.U v.x.j.*.} G Z.c.c.M.Z.D +.v.S.S.M.c.c.",
"E X.X.` q X.:.f.M.E.^.!.r.A ,.0.4.4.5.y.f.B.r.M -.p.r.m.B.b.{ 0.F.~.~.c.G c.f.w.8.Z.! D k.M.S.S.F.A.",
":.X.:.X.q %.X.r.r.k.p.a.,.n 0.d.f.4.f.f.y.n.r.p y.a.B.v.n.v.1.#.c.N.R.N.F e.e.w.i.k.k k 8.8.z.F.Z.c.",
"X.] X.F > X.*.4.5.v.k.a.#.n r.8.%.:.5.r.y.n.5.n | 1.N.0.p.i.k.k.*._ <.i.T f.p.w.8.} r D a.r.k.k.N.c.",
"4.E ) y 7 ` r.n.k.k.N.p.Y e p.r.y.f.f.r.n.n.-.n ] p.v.v.5.p.-.a.<._ ) F t 1.w.*.R k 5 U 0.h.N.h.c.e.",
"p 7 p > q p F ) k.{ } J e   m V X.-.` ] 1.;.V 9 v ` #.#.} #.) ,.F h e 8 5 n y M r : 9 k D @.8.,.F V ",
"p } w.v.G.v.w.] r x 8.0.M.| *.,.F p p T -.,.-.} J m R g r r I D Y ) } i.p.} w } B.v.J.M.i.{ e z ] Y ",
"F N.x.a.N.T.K.e.t #.K.i.S.9.e.R.y.L F X.] ` } ` } ` ,.| x ,.D.J.J.K.N.p.x.<.I v.k.r.S.J.T.i.n e.f.r.",
"} c.f.Z.c.Y.Y.x.h q.c.c.c.H c.c.S.) F <.E } Y T T ` ` F J k.b.B.p.i.w.1.c.1.{ D.c.R.K.J.K.} V f.1.1.",
"_ c.A.c.x.f.c.x.4 H =.+.^ z x.f.{ m > f n F L Y Y ~ v 9 g [ 1.n.v.r.x.N.p.{ ~ M.i.e.<.,.<.F 7 p x x ",
"z _ ^ H G F V f z h h f h h Z h Z Y n e g q M v M U m k J D A M v y F E F n n ~ Y F M n t n V l w x ",
"e.x.e.f.c.f.q.@.&.G z _ x.c.c.=.} a.w.,.*.*.M.x.k.v.v.B.E.G.B.o.V Y { ) } <.0.,.<.w.i.*.T T J t K T ",
"X.*.<.f.<.} *.f.e.G H q.c.h.H G ~ } I ) I | J.D.G.B.H.W./.E.G.J x X.%.` X.,.,.<.,.,.X.] %.X.Y p U U ",
"&.*.*.*.@.G H 9.&.z V +.&.h.+.^ #.{ ) @.n D p.v.n.i.k.B.N.k.;.1 7 V M J X.} { } %.} n p V V q 7 B B ",
"V V z h l 8 4 t z 8 4 8 h F H G M n D Z y 7 M U J v g y i M w 9 X X   - t q l r 7 q 7 > > > - > 1 : ",
"t f h l V h t t n ! &.H F 8 G G ~ n M 9 K k w 1 c J B M J K 0 T E L V V 7 2 M q 9 y l q 2 a E E P K ",
"n F m m I { Y 8 F x.K.e.e.G i.N.a.v.i.' -.,.M n D D W ..-...r ;.g.5.u.T 1 x B k v n M x - E 1.>.' ' ",
"t m l n Y ) Y e *.p.9.*.} ) ,.<.0.i.k.k.V.d.D c k n c B k i 0  .>.5.:.] - k k c a M K x 2 E X.] ' Q ",
"n F n n n j g ; F Y X.=./ { *.9.,.{ | o.-.U r r c b a x 0 0 0 B W >. .R 1 0 0 k 9 w 9 = X a b L D K ",
"# , ; 5 7 5 g t t 7 F z j 5 j I ~ A c M m y y v 9 r r < O * O < s E K a w   & & 9 9 0 a a a - 3 1 1 ",
"l l l T ,.<.r.i.N.{ f e #.#._ } k T o.1.,.-.;.1.R ` ;.c 1 B D ..X.2.O.Q ..N c c ;.3.>.2.2.O.b C R R ",
"*.E F *.M.k.p.<.0.8.A { 8.p.#.k.U a.G.B.v.t.a.t.u.5.t.N B .. .s.O.O.o.2.3. .D D 3.6.>.[ Q o.s s  ...",
"<.E V ,.v.i.0.,.,.~ 5 { p.A.#.D R N.B.i.;...;.1.0.-.R 1 B ..' .. . .[ O.2...B K ..>.O.2.Q Q u u ;.;.",
"1.) J ,.p.8.r.j.| I g R 8.8.k.#.9 8.r.>.;.-.-.;.' ' N O N W ....O.C 2.O.s.' P P 3. .Q 2.Q s < C P W ",
"-.) M { -.` #.o.n n f k ~ | #.8.D x E %.T V L C C C 3 3 2 N K c C C Q Q R C N s Q B R W s 0 0 1 c c ",
"v g 7 F ~ A I A 9 e : : r g j D g 5 y J x w p q a a - 2 < a N w 3 3 < < @ 2 3 u u 2 u 1 O * 1 & + * "
};
