/* XPM */
static char *_df532ed271e444e9596b124a04474ffDobK07grQcoXUDR2[] = {
/* columns rows colors chars-per-pixel */
"60 60 136 2 ",
"   c #7A909E",
".  c #7E94A2",
"X  c #8395A5",
"o  c #8399A7",
"O  c #8697A9",
"+  c #869BAA",
"@  c #8A9DAD",
"#  c #8B9FB0",
"$  c #8BA1AE",
"%  c #8EA3B3",
"&  c #8FAAB8",
"*  c #92A5B5",
"=  c #93A9B7",
"-  c #92A7B8",
";  c #95AABA",
":  c #9AADBD",
">  c #96B0BF",
",  c #9BB1BF",
"<  c #9BAFC0",
"1  c #97B1C0",
"2  c #9EB3C2",
"3  c #9EB8C7",
"4  c #9FBAC8",
"5  c #A2B5C5",
"6  c #A3B9C6",
"7  c #A8BFC7",
"8  c #A4B7C8",
"9  c #A5BBCA",
"0  c #AABDCD",
"q  c #ABBFD0",
"w  c #A5C0CF",
"e  c #ABC1CE",
"r  c #B0C7CF",
"t  c #A7C1D0",
"y  c #ADC3D2",
"u  c #B1C5D5",
"i  c #B3C9D6",
"p  c #B8CFD7",
"a  c #B3C7D8",
"s  c #B5CBDA",
"d  c #B9CEDD",
"f  c #BBD2DE",
"g  c #BACFE0",
"h  c #BFD5E0",
"j  c #BED4E2",
"k  c #BFD5E3",
"l  c #BDD2E5",
"z  c #BED3E4",
"x  c #BED3E6",
"c  c #BFD4E5",
"v  c #BFD4E7",
"b  c #BDD2E2",
"n  c #C0D7DF",
"m  c #C0D6E1",
"M  c #C1D7E2",
"N  c #C0D6E3",
"B  c #C0D6E4",
"V  c #C1D7E4",
"C  c #C1D7E5",
"Z  c #C0D5E6",
"A  c #C1D6E7",
"S  c #C1D5E5",
"D  c #C1D8E0",
"F  c #C2D9E1",
"G  c #C2D8E3",
"H  c #C4DBE3",
"J  c #C3D9E4",
"K  c #C2D8E5",
"L  c #C2D8E6",
"P  c #C3D9E7",
"I  c #C4DAE5",
"U  c #C6DDE5",
"Y  c #C6DCE7",
"T  c #C3D8E6",
"R  c #C8DFE7",
"E  c #C0D5E8",
"W  c #C2D7E8",
"Q  c #C2D7EA",
"!  c #C2D7E8",
"~  c #C3D8E9",
"^  c #C4DAE8",
"/  c #C5DBE8",
"(  c #C5DBE9",
")  c #C5DAEB",
"_  c #C7DDE8",
"`  c #C6DCE9",
"'  c #C6DCEA",
"]  c #C7DDEB",
"[  c #C4D9EC",
"{  c #C6DBEC",
"}  c #C5DBEA",
"|  c #C8DEE9",
" . c #C9DFEA",
".. c #C8DEEC",
"X. c #C9DFEC",
"o. c #C9DFED",
"O. c #C9DEEF",
"+. c #C9DEEE",
"@. c #C9E0E8",
"#. c #CAE1E9",
"$. c #CAE0EB",
"%. c #CBE2EA",
"&. c #CBE1EC",
"*. c #CAE0EE",
"=. c #CBE1EE",
"-. c #CBE1EF",
";. c #CCE2ED",
":. c #CDE3EE",
">. c #CDE4EC",
",. c #CEE4EF",
"<. c #CAE0EE",
"1. c #CBE0F1",
"2. c #CCE2F0",
"3. c #CDE3F1",
"4. c #CDE2F3",
"5. c #CEE4F2",
"6. c #CFE5F3",
"7. c #CEE3F4",
"8. c #CDE3F2",
"9. c #D1E7F2",
"0. c #D0E6F3",
"q. c #D0E6F4",
"w. c #D1E7F5",
"e. c #D0E5F6",
"r. c #D1E6F7",
"t. c #D1E6F7",
"y. c #D2E8F6",
"u. c #D3E9F6",
"i. c #D4EAF5",
"p. c #D2E7F8",
"a. c #D4EAF8",
"s. c #D5EBF9",
"d. c #D7EDF8",
"f. c #D5EAFB",
"g. c #DBF1FC",
"h. c #DEF3FF",
/* pixels */
"f U @.@.@.R @.@.p p H @.n H >.@.n K ) | *.*.@.*.5.*.@.*.2.q.q.2.( 2.P b *.2.( ( @.2.a.a.u.6.w.a.w.*.%.@.#.9.d.g.9.9.>.R ",
"f f f p p n n H r 7 r H n p n n R I V j g f d g v k j g f k *.2.k ( i 9 i b d k *.*.*.( K h j h s d f f f p s i i p d n ",
"p r r r e r p p f 7 r n n p p p K j d i u u i u t i k k g u u u i b r 6 s k k *.f s y t y y y r i p f f p e 7 7 5 7 0 i ",
"r r r e 7 7 r r R w e U H r r r s i i u i i i s i f j j d r w w u b d s h k b j 3 , > 3 w u i i i i p e 6 2 7 e 7 7 e r ",
"i p p p r p r p U 6 , f f i e y e y i f f f d p *.j i y r s g j d ( c i s i w w 7 6 9 y f j f s f f n d p s f n r u r i ",
"s d m m n p f f h 6 7 f f f f b i s b h c b d s s i s b v @.k d d ( d w i i i f K V ~ ` ` K j d f n m Y R I R U n n n d ",
"i i p s i i p f ` y y d p f ) c s f f j j b d s 4 e d k ( b s w r k d y s f j *.) ) U K j f d f u 9 7 7 r r e 7 n n n f ",
"9 9 9 9 7 9 r i U i i r e i l a s s s d d f d f f d r 9 2 9 r b u ( K f j s y u y i i u y y s f  .d 7 5 9 r i u , 5 0 i ",
"6 2 = $ # # - ; q 3 ; % # # # # & $ $ ; = * > 9 3 > ; * * * $ o % 2 9 6 , ; * $ = * $ + % > = o 5 6 7 7 5 = $ $ $ $ + $ ",
"i p d f g g a y g u e 9 9 q q 4 u e y i i w e y i i y i p s a r e f j s y i u y i s s i s f j s u p f n m f n f r r e e ",
"Z Q O.e.e.7.1.1.) ~ c c v v v l j b c ` I f s s j j G ~ *.*.( v *.2.w.*.` *.2.w.` >.2.` U ` *.>.r s f H R R %.,.R R n @.",
") Z d s a g x v b g g b l l l l i y i p f s i r j f f f d d p d 9 w y w 9 e r i b k j f s s s d 0 9 r r r e u r s p n n ",
"E d q < < 3 4 q y y q t a a t 4 9 6 9 9 y u y w f d s y w e y u d d b j b b b k d u y r i i y e 0 e r 0 7 5 5 6 5 6 7 0 ",
"9 8 4 8 9 q a a g a a a a a a t u i y e r i u w u u r w 9 w r i r t r i i r y u i y t u s s f f r i p i u e 0 e e e r e ",
"8 9 q g g x v v g g g g g g g g s f s s d b i 9 t u i i u u s d k b g k k d s f p u i d f i s G e u p f f p p p p p p i ",
"[ Q v l g a g a a y q q a a a a y s d s b h s 3 i f v @.k b f d k i i s i y t u j b k k s e y j 9 r p m n n m b p r u r ",
"g g y a y a y y g g y 3 1 < 3 q 6 2 1 3 a l g q a a d g a a a a f j b s s f f s 6 9 e y i s f f n 7 5 : 5 u p u 5 5 5 0 ",
"- < 1 1 < < 1 2 8 q a a q 9 8 2 : : ; ; 4 y 9 < 2 < 2 < < < < 1 % : 3 , 3 5 > = , : * * * : 6 9 0 < * O O X X X 5 5 5 5 ",
"- < 8 9 2 < 8 q < 9 a g g a y q 2 3 2 < 2 9 8 2 1 < ; - - ; 1 < > 7 9 w 9 u y 9 e 9 3 , > 3 6 9 q 0 5 0 r u p u n d d d ",
"O.7.p.t.e.e.f.g.a y a g g g l v 4.p.7.[ [ [ O.[ [ [ [ [ [ [ O.O.K K j s p I *.;.` ` ` U K f s i Y S m m S J m n I S Y S ",
"a q 9 8 9 q a a g a y a g g g v y d a y 9 q 9 q q q a q a y y q f s r 9 7 y s p j j j K K j f s u r q q 0 0 0 0 5 0 0 p ",
"g q 9 8 9 q a y a q q g g a q a u g g a a a a y a a g g d a a y 9 e y 6 6 9 9 3 9 6 6 6 9 e i s 8 8 5 7 5 0 0 0 5 5 0 u ",
"8 8 q 4 4 8 9 9 a 8 9 a g 9 8 9 8 q q q q t q 4 q 9 9 q 9 9 4 3 y s s y u i y 0 6 9 6 6 6 w y u d s u 7 5 : : : 0 r u u ",
"8 q g g a q y a g 9 3 y a 9 9 a 8 q a a g g a 9 x g g a a a q u d d i e e y s i y i s s s y e 6 7 0 q q u d I ;.p u 0 0 ",
"g a g g g g q g a q q a g l g g a l l l a a a a a a g g l v g g e y e y y s f I f f f f f f d d p d p p f d s s * : : 5 ",
"1 3 2 3 2 q q q g a q q a d g g y y a a a a d g q 9 8 q q y q 9 w y s i e e e i i i i y e 9 9 6 s i u i y y e 0 u u p p ",
"q 9 8 < 1 8 q 8 g u 9 3 3 9 q 9 < 2 8 q q y y a q 9 8 2 3 8 4 3 6 e d i 7 > , 3 1 2 6 6 9 e 6 9 8 5 , > > = = = : 5 5 5 ",
"1 1 < - < # # 1 3 1 - % # # # # + + # # % & & ; 1 < 1 - - - * # $ ; 3 2 = + @ $ @ $ * : , 3 3 3 : : ; = % % % = * * : : ",
"l x Q v [ [ [ O.[ v v v x x g g l l c v l c l g c v [ [ [ [ [ [ ` ( K ( ] ` K G ;.2.2.2.2.*.` U b j V K G G ` *.S S S S ",
"q a a g g g a u y a a s s a a y g a i a a a y q 9 y a g g g g g i y e y s d f s u u i y y y y y > 6 0 0 9 e y i d d d d ",
"a a g g a a q q y y a a a a a g a a y a a a y 9 i g g a a q q q y e e e y u y y 6 6 3 5 6 e u i e s f b p i i s 5 5 5 5 ",
"9 q 9 q q a a g y y y y t a a g 9 9 9 q y a y q l l g q < * - * 9 e y e e w 9 e e 9 6 6 6 9 e y 6 e s s 0 5 , 3 u 0 u 0 ",
"9 q q 3 8 y y 9 a q t a a a t 9 y i e y i d u 9 y 7 ; ; 3 9 u i r y e y i i y 9 y i i y 9 w u f 0 0 0 u u u 0 0 0 0 0 0 ",
"a g a q y a g g a a a a a g g a y u e e y i e 3 9 e i s d f s f c j f s s p f V f j ` K j s s s 0 0 0 u d u u u d u d d ",
"g g g a a d l g y y q q 9 8 9 y i i i i s f i e e s ` *.~ j f f y i i w 6 > 6 9 6 e y i u r i s u u u d S S S S u u u d ",
"a y y q q a a a g g g a y q y a , 5 3 6 w i u e 9 9 e e 6 6 6 9 e i s f s u e e 9 9 9 6 9 e d G u 0 5 0 0 0 0 u 0 u u u ",
"# # # - * % % % # - - 1 % # # % $ % * % = , 5 : 3 = % % = ; ; ; $ $ = 1 9 9 9 3 ; = $ + o o $ % 0 5 * O * O O O O O O O ",
"1 1 2 8 8 2 2 2 1 4 q a a g a a e y e 9 0 0 u 0 e 9 6 e i s u e j i e e i f f f f j G j j d i y 0 5 : 5 5 5 0 0 0 0 u u ",
"1.Q Q [ [ Q [ 7.q 9 q t a g g g V ) I b f f m m p f f b j j f p b s e 6 5 6 9 e y i f j K f d u u u u u d d u S u u u u ",
"a 8 2 3 8 3 q a g q 9 q y a a a 9 e e 6 6 9 q 0 y y y 6 > , 3 5 9 9 e y e 9 y s e w w 9 6 6 3 2 u 0 0 u 0 5 * * : : 5 5 ",
"q 8 8 3 4 9 q q q q y g g g q 8 * : : 5 5 5 7 0 5 5 5 5 5 5 5 5 1 6 6 6 0 p f i 9 6 > = = : , 6 5 5 5 5 5 5 5 5 : 5 : 5 ",
"9 q 9 q 9 9 9 8 a q 8 8 4 3 < # 5 5 5 0 0 7 0 7 0 0 0 0 0 8 5 5 6 e y 0 0 0 6 , o + $ ; 6 e i f 0 0 0 0 5 5 5 5 5 5 5 5 ",
"q q y a g a a q q 9 3 3 8 9 8 3 0 0 r u n 0 0 7 q q u u q u a u 9 y u 0 6 3 3 > e y i y y 9 6 3 u 0 0 0 0 0 0 u 5 5 0 0 ",
"q q q a g a a g a q 8 q q g l x d u p u 0 0 0 0 0 0 q u u a a a y i i e 6 9 y s s s f f f s i e 0 0 0 0 0 0 u u u u u 0 ",
"3 8 2 3 8 8 8 9 g a q 8 q q q q u 0 0 0 0 0 q q 5 5 5 5 8 8 8 8 e y s i e 7 0 i 6 6 9 9 e e y i 5 5 5 5 5 : 5 5 5 0 5 0 ",
"1 1 < - % * - - q 9 2 1 1 # - 1 : * * : : 5 5 0 5 5 : : : * * O ; > e e 9 ; $ $ 6 5 > = % % % * 0 0 5 5 : * * O O O O O ",
"8 8 2 2 8 2 3 8 8 9 8 8 2 3 8 8 : : 5 5 5 5 0 5 q 0 0 0 8 8 5 5 : : 6 e 0 2 = = 3 , 2 , 5 9 w e 0 0 0 0 0 5 5 5 * * 5 : ",
"a g g x E E E x l v E E l g g g h S S Y S S u q S S S S l l a l i w e i b b V o.J G j f d p d p 0 u d d S d S d S d u u ",
"q a a a g g q q q q q q q t a a q a q q q q q < q q q q q a q a d i t 4 4 6 9 9 q 0 8 8 0 q u u < 5 0 0 q q 0 0 5 0 0 0 ",
"q 9 9 q y a q q 9 9 q q q q q t 9 8 q 8 q q 8 < 8 8 8 8 8 8 8 8 u t t t w 4 9 4 5 < < < < 5 5 5 8 8 0 8 5 5 5 5 5 5 5 0 ",
"8 4 8 q q y q q q q q q t q q t 9 q 8 8 q u q 5 q q 8 8 5 5 5 8 4 4 w 4 9 9 4 3 : < 8 8 0 0 q q 8 8 5 5 5 5 5 5 5 5 5 : ",
"q q 9 9 q q y y q a q a a a a t q a q q q a q 8 q q q q q q q q 4 4 4 w w 9 9 9 0 a a a u q q a 5 5 5 8 0 0 0 0 0 5 5 5 ",
"a a q q q q t a q q a q a q q q q u q q q u q 5 q a a a a u q q t t w 9 t y a a g g a q 8 5 8 8 5 0 0 0 u 0 0 0 5 5 5 0 ",
"a a g g a a a g a q t a q q a q a a q q u a u 0 q q a a a u q q y t t w t t a y a q q 0 8 8 q a u u 0 0 0 5 5 5 : 5 5 0 ",
"4 q q 4 4 q 4 q 8 q 9 8 4 4 8 8 8 8 8 8 0 u u 0 5 5 8 8 8 8 8 8 4 4 4 4 4 3 4 4 < : : 5 8 q q a 0 0 5 : : : : : 5 : 5 5 ",
". + # # # . # 1 - - 1 - - 1 - # * * O * : 8 5 < * * O O O O * * & 1 & 1 1 1 & . * O O * * * * O 5 5 * O O O * : 5 : * * ",
"8 q q 4 q a a a q 3 q a g g a a a u q 8 8 0 q a a a a u u u q u w t 4 4 t a t g t y a t q 0 8 8 u d d u d d u d u u d d ",
"a a a a t a g a a q q a g g g g a a a u q q q q a a u u q q q u w w 4 1 t t q a a a g a q q q q 5 0 5 5 0 0 5 0 5 5 0 0 ",
"q a a q q q q 8 a 8 4 q q q q q u u a u q q 8 5 5 5 8 5 5 5 5 5 4 w 3 1 9 9 4 4 8 8 4 9 0 8 5 3 : 5 : * 5 : * : * * : 5 ",
"q q 4 < 3 8 8 3 q 3 < 3 3 < < 2 5 5 8 0 q q 0 5 5 5 5 5 : : * * 1 w 1 1 4 4 1 1 < < < < < < < < : 5 : O * 5 O O * * * : "
};
