/* XPM */
static char *ad72e8382a464750d079b0d877e8fdb0Ewl5wdDTwtMPBCwN[] = {
/* columns rows colors chars-per-pixel */
"50 50 248 2 ",
"   c #1B4D0B",
".  c #1D5809",
"X  c #1D5A0C",
"o  c #294F07",
"O  c #295904",
"+  c #235C0B",
"@  c #2A5D0B",
"#  c #245C11",
"$  c #1C6713",
"%  c #266406",
"&  c #25620B",
"*  c #2C640C",
"=  c #236B0C",
"-  c #2C6C0C",
";  c #32670B",
":  c #376D09",
">  c #336B0C",
",  c #2C730C",
"<  c #29790B",
"1  c #2B7D0D",
"2  c #367407",
"3  c #3D7C06",
"4  c #34730D",
"5  c #3A750C",
"6  c #337C0C",
"7  c #3B7B0B",
"8  c #246413",
"9  c #2B6415",
"0  c #266D11",
"q  c #2C6C14",
"w  c #27681B",
"e  c #336E13",
"r  c #3C6C13",
"t  c #336C1A",
"y  c #247315",
"u  c #2E7414",
"i  c #267B14",
"p  c #2D7B13",
"a  c #22731A",
"s  c #2B731A",
"d  c #2B7C1B",
"f  c #347312",
"g  c #3B7513",
"h  c #347C14",
"j  c #3B7B12",
"k  c #33731B",
"l  c #3A751B",
"z  c #347C1C",
"x  c #3B7C1B",
"c  c #256024",
"v  c #386A28",
"b  c #2D7322",
"n  c #2A7829",
"m  c #327423",
"M  c #337A22",
"N  c #3D7D23",
"B  c #387827",
"V  c #43780A",
"C  c #437C0B",
"Z  c #437D13",
"A  c #437A19",
"S  c #417121",
"D  c #417E23",
"F  c #447837",
"G  c #3C8406",
"H  c #34830E",
"J  c #3C840C",
"K  c #358B0D",
"L  c #3C8D0C",
"P  c #3D920D",
"I  c #3E9A0D",
"U  c #2C8214",
"Y  c #2D8718",
"T  c #348313",
"R  c #3C8314",
"E  c #358B13",
"W  c #3C8B13",
"Q  c #34851B",
"!  c #3C841B",
"~  c #338A1D",
"^  c #3C8B1B",
"/  c #369116",
"(  c #3C9214",
")  c #3D9C15",
"_  c #36921B",
"`  c #3C931B",
"'  c #2A8524",
"]  c #348223",
"[  c #358726",
"{  c #3C8324",
"}  c #3B8C22",
"|  c #3A852B",
" . c #3D8C2A",
".. c #3E9223",
"X. c #3B9327",
"o. c #388336",
"O. c #3C9335",
"+. c #438406",
"@. c #488806",
"#. c #43840C",
"$. c #4A850C",
"%. c #448B0C",
"&. c #4B8B0C",
"*. c #51870B",
"=. c #528D0B",
"-. c #5A8D0B",
";. c #43940D",
":. c #4B930D",
">. c #459A0D",
",. c #4B9A0E",
"<. c #559707",
"1. c #53940D",
"2. c #5B950D",
"3. c #559C0D",
"4. c #5B9B0C",
"5. c #438314",
"6. c #4A8513",
"7. c #438C14",
"8. c #4B8C13",
"9. c #44841B",
"0. c #4A841A",
"q. c #438C1B",
"w. c #4B8C1B",
"e. c #528C13",
"r. c #558915",
"t. c #548E1C",
"y. c #449314",
"u. c #4C9413",
"i. c #459B13",
"p. c #4C9C14",
"a. c #43931B",
"s. c #4B941B",
"d. c #459B1D",
"f. c #4B9B1B",
"g. c #549314",
"h. c #5A9314",
"j. c #539B14",
"k. c #5B9C14",
"l. c #53941B",
"z. c #5A951A",
"x. c #539D1B",
"c. c #5B9C1C",
"v. c #62980A",
"b. c #629D13",
"n. c #669A16",
"m. c #4DA20C",
"M. c #4AA50F",
"N. c #53A30C",
"B. c #5CA60C",
"V. c #52A80E",
"C. c #5DAB0C",
"Z. c #5CB20D",
"A. c #46A117",
"S. c #4DA114",
"D. c #4DA21B",
"F. c #54A314",
"G. c #5CA414",
"H. c #55A913",
"J. c #5BAB14",
"K. c #54A31B",
"L. c #5BA31C",
"P. c #56A91C",
"I. c #5CAB1C",
"U. c #5EB219",
"Y. c #62A50B",
"T. c #63AB0D",
"R. c #6CAA0D",
"E. c #62B20D",
"W. c #6CB50E",
"Q. c #62A415",
"!. c #6CA717",
"~. c #63AB14",
"^. c #63A41C",
"/. c #63AB1A",
"(. c #6BAC1C",
"). c #62B215",
"_. c #6BB414",
"`. c #6CB916",
"'. c #64B11B",
"]. c #69B41B",
"[. c #72B115",
"{. c #75B81A",
"}. c #448523",
"|. c #4A8522",
" X c #428D23",
".X c #4B8D23",
"XX c #4A822A",
"oX c #438B2A",
"OX c #4B8C2C",
"+X c #528E2A",
"@X c #449322",
"#X c #4B9423",
"$X c #449922",
"%X c #4B9B23",
"&X c #44942B",
"*X c #4C942B",
"=X c #469C2B",
"-X c #4B9B2A",
";X c #539423",
":X c #579226",
">X c #529B23",
",X c #5B9C23",
"<X c #549C2C",
"1X c #5C9E2B",
"2X c #458A37",
"3X c #568C35",
"4X c #479635",
"5X c #4B9434",
"6X c #5C9633",
"7X c #579837",
"8X c #5B9B35",
"9X c #52983A",
"0X c #629529",
"qX c #639D38",
"wX c #4AA323",
"eX c #53A223",
"rX c #5CA425",
"tX c #5BAA24",
"yX c #57A728",
"uX c #59A435",
"iX c #62A523",
"pX c #64AD24",
"aX c #6AAC22",
"sX c #62A42D",
"dX c #65AB2C",
"fX c #72AC20",
"gX c #6CB421",
"hX c #6EB329",
"jX c #76B622",
"kX c #66A534",
"lX c #68A73A",
"zX c #6CAD3B",
"xX c #74AC3C",
"cX c #67B131",
"vX c #79B435",
"bX c #528A43",
"nX c #5A974B",
"mX c #639C44",
"MX c #659C47",
"NX c #5BA048",
"BX c #66A646",
"VX c #6CA443",
"CX c #75AD42",
"ZX c #79AC4B",
"AX c #6FAA53",
"SX c #76AC52",
"DX c #81BE18",
"FX c #84B74B",
/* pixels */
"r @.&.$.j j C $.= 3 w.0.4.<.J j.2.v.R.j.c.f.b.h.&.W :.> 7 h.<.=.b.8.j 8.8.j t h.v.-.n.Z S $.2.A f *.",
"V C 7 #.7 7 3 u., # R 7.:.#.w.g.1.k.#.3.l.s.u.3.[.k.T.4.4.k.1.u.2.6.N #.w.9.x =.e.6.n.v.Z -.-.f $.v.",
"6.2.+.5 f C j 8.q.j k.#., 4 ! 5.s.[.7.;X8Xk.8.:.%.J u.3.j.3.k.g k.h.s.#.e.1.Z #.C A A V g *.v.C V -.",
"Z V 2 j 8 > s.1.e.&.<.6 = u., w.s.k.7XqX8.g.k.@Xy.u.4.G.q.0.k.+Xl.g.8.z.!.7.$.8.9 v t.r.g v.-.*.e Z ",
"8.f + 9 7 =.2.+.5.Z = h R j.W u.N.%.OX^.j.1.j.a.R.p.g.G.(.z.&.x.q.l.Q.b.rX7.7 j.w.0.e.=.r *.C -.A t ",
"3 C f Z :.&.<.h x.9.h H 7.j.7.6 :.u.] T.T.F.! L.'.j.p.c.DX_.aXI.f..X3.9.g.3.R v.4.j 8.r.Z 5.$.=.6.9 ",
"=.7 J 7.6 %.%.^ u.8.5.k.>.q.U ;.u.j.eXW.>.a.8X[.j.y.3.s.Q.~.cX!.s.;Xg.9.7.%.qX0XZ j $.5.g.h.!.2.=.Z ",
"@.2 5 7 5 +.g.8.:.:.,.k.y.W ,.8.u.F.j.S.W L.gXG.k.x.[.a.q.Q.*Xs.x.rXb.x.l.u.xXqXw.6.&.1.$.-.2.=.e.h.",
"<.3 G 3 R > =.4.@.:.u.p.} W C.3.W V.;.j./.^.y.>.f.cXdX;.>X{.D.@XL.K.s.Q.s.lXlXh.r.j %.&.*.&.2.0.Z 6.",
"#.q 7 6.&.9.3.G %.:.x.P.F.i.y.a.x.W H ,.K.,Xl.,Xa.>XG.>.eXP.$XkXx.l.,X7.3XZX,XQ.!.%.7.j g =.v.h.r.V ",
"6.R l.z.@.6.k.3.E ^ ~.Q.3.q.OX#X`./.f.L.N.d./.F.a..X>XD.V.J.%X].x.iX^.uXSXkX4.n.8.u.w.J &.5.n.z.h.e ",
"7 C 5 h.g.1.W T.p.O.K.,.u.7.{ f.dXtX~.J.F.~ i.>.k.x.p.p.c.p.u.K.@X( sXFXvXDXk.,Xl.j.8.&.9.g.g.OXh.5 ",
"+.&.7 4 j B.J j.T.7.x.W.E.( / s.x.P.~.L.P.` p.S.f.:.J.w.a.@X(.(.L.G.VX8XG.[.k.b.R.w.R w.*Xl.u.e.$.$.",
"#.=.#.R }.3.j.@Xf.1 >.,.Y.F.^ ~ eX{.F.jXD.C.N.Q #Xp./.uXO.<XE.{.<XVXCX7X<X^.iX(.[.,Xw.u.{ N g.4.&.=.",
"4.4.&.p.K.p.T.x.@XW 7.B.,.K.%Xd.U.pXG.p.` G.j.<XI.} >XP.eX-X( m.5XnXpXhXhX/.zXrXG.jX/.7.! 9.w.k.1.C ",
"4.3.%.L u.,.%.>.G.@Xy.u.} y.A.P ` yXJ.' wX/.I.K.} ..d.).Z.H.d.f.<X5Xs.'.gXiXrXl.x.Q.4.z w.&.v.z.8.6.",
"%.G :.%.H >.! y.E.~.;.$Xo.a.y.i.x.F.'.cX'.U.U.eXf.D.tXP.E I d.L.pXJ.j.C.g.s.>X#X#XrXw.N Q g.Q.,X4.b.",
"%.:.Q.N.x.<XuXK.F.P W P.=XP.f.P.D.f.F.q.a.H.d.tXD...D.eX` ( @XJ.S.p.8.F.<X] @X#X;XXXOX.X} ! z t.1.8.",
"3.j.F.P j.<X` >.j.` f.J.d.Z.d.(.].U.H. .eXF.j.=Xa.1 y.` ( S.f.p./ a.7.d | I.K.} k.t.|.sX9.z R &.Z 5.",
"4.%.J k.iXl.f.s.K } i.( B.` J.` F.E.;.&XwXwXS.y.I E J.p.( C.N.7.y.F.i.| @X'.J.y.s.G.u.R u.7.e.x x #.",
"N.8.7 G.<X X>.j.a.K.D.y.V._ %XR L >.H ^ i.tX@Xf.J.a.p.f./ ,.W y.F.i.x.%X( a.W f.9.G.j.5.:.g.k.5.Z t.",
"Y.3.q.1.$XNX XL.`.3.k.x.F./ D.y.>Xj.U ) M.P ^ p.p.p.s.P.;.f.d.(.L.a.u.f.y.k.y.h R L.z.s.u.j.q.z.e..X",
"<.>.%.aXcXZX%Xp.K ^ ..%Xp.) A.$XK.P.p.I I q.F.i.T ! p.u.K.F.G.f.iXD.a.P.f.] Q z q.~.G.F.8.u.u.l.:X3X",
"H &.&.lXvX#X7.f. .4Xy.P L i.d ' yX).L L ` wX,.E f.S.N.j.D.eXtXx.%Xp.a.P.%X&X} p.w. X( l.c.9.A <XMX3X",
"g.7.rXVXiXB.q.W D.=XW .Xf.} bXNX).J.` i.` i.d U ,.H ;.y.E } ~ T ` u.` -X,Xx.a.y.@X%Xq..X#Xw.! mXmXl ",
":.! MX3X8.Q.f.! ( >.u.} _ 2XzXE P I I M.Q K [ E 7.N y.K.d.eXf.d Y q.R z 0Xs.@X} x.j.}.#Xa.s.nXnX+X:X",
"s.VX8X1XOXy.J.I.p.` ` ) d.9X` Y a E ( _ d.y.A.i.f.u.s.d.J.C.f.a.D.tXL.{ { a.} 7.y.a.oX1Xq.qXSXbXl z.",
"qXCXf.F.L.:.L m.x.x.y.>.S.i.y.)  .V.m.U K.D.i.p.P.A.yXyXd.` T J.D.y.W 4X^ s.~ u.7.^ f.}. X6X6Xl 7.<.",
"CX^.4.W p.N.L L J.`.p.K Q D.( P Y H.i./ ( ( ` u.7.~ yX` ( K 1 ,.N.y.] %XD.} $XL.s.h Q w.VXMX8.q.R .X",
"u.+.6.5.3.N.T %.B.Z.I ( ~ i.>.P j.gXD.f.E T U F.d.' tXs.K K K.%.,.y.[ K.a. .x.W ^ l R |.MXc.2.#.7 N ",
"%.j ;.>.;.7.q.a.F.>.K E @Xp.>.F.pXoX7.( / / $X@Xa.a | f.,.T f.s.@X . .} oX&XF.^ w.f.q.! |.s.R.%.f 4 ",
"u.l.%.3.,.W g.%X] T x.lXyXM.T #XwX>XJ E y./ f.9X` Q $Xy.>.V.%XnXyX<XuXwX@X$X . .s.iXsX! .XeXT.R.R 8.",
":.@.T H 6 R p.I.OX7.z eXa.i ~ 4XK.Z.( q.p i / E F.a.( ..<X_.cXzXgXeXp.u.>.d.pX#Xs.s.B z x.B.u.4.&.9.",
"+.J J %.x ] s.,. Xs.F.p.=XM X.wX^ S.W d.D.) d a P P u.S.&XvXVX*XeX..U H P ( ;Xs.f. XoX9.j.e.8.v.6..X",
"6 R 7.%.h f.j.>.~ ^ m.N.a._ K ) d.D.q.>XJ.( $X=X$XK.^ h W -XgX&Xd.T y.W h 7.^ f.W T *X1X,X,XfX!.w.8.",
"$.7 q.6 J 2 < T.B.p >.K P K ;.i.@X>XkX*X/ = K tXyXa.~ ..( Y K.@XE F.x.x.q.p.x.iXW 7.7.+XD q.k.z.8.Z ",
"+.G 6 %.J p R R.~.d y.` T j y / BXBXeX/ / i.( j.y.U a.F.y.i y.'.W F.,Xl.;Xq.qXMXW c.^..Xk 9.R s.5.q ",
"3 =.+.&.6 - 5.j.k.s.( R i.eXf.uXBX&X( K L >.Y 7.i.f.f.d.S.[ y.>.5.f.8X;Xa. .mXuXq.! 9.s.N s.5.#.r.A ",
"&.3.- %.h 9.4.1.R T y R B.( kXnX%XW ( ,.N.P E y.P >.W d.p.( %X%Xx.^ %Xf.2XMX8X>Xk.! x x 8.q j #.#.e.",
"G 3 0 8.:.7 J f.&XB b R x.| xXoXrXu.T ~ K >.^ [ Q ~ d d.J.>.%Xs.yXuXH.(.VXVX>X1X,XJ j l.A f 5 A #.b.",
"4 - k t.@.f 5.p w.W k.p.,XnXdX:XG.F.%XX.} f.[ ~ } ~ =XyXW p J./ wXJ.yXFXxX^.x ! w.9.q ! B k # S 6.l.",
"> @.#.&.#.#.R 7 7 h L R ZXzXeX&Xy.i.W W { X.' T ( | oXrX(.f.#X^ } y.VXSX#X3.s.u.x x j q D j g 9 j j ",
"9 3 2 s x $.0 e , < w.bXMXs.1 ^ q.u.6 H Q *X Xh T *X9.K.j.q.tX(.s.OXnXsX6 w.<X1.j Z %.e l ! h 5 9 8 ",
"F + + R #.9 v q 3 2 F bX7X! 0 9.a.J , i d ! 7.T }.5Xn ~ l.a.T #XqXAX8Xh q.| B f 7 0.4 7.t.j > 5 q 8 ",
"0X=.z n , m D j 5 :.2XD }.u.6X#X^ T P W y q R y.7.! q.! q.q.p E bXmXg.s.>XB oX@XR h.XXZ - k l V r w ",
"C e c # & - 6 C Z e 9.u.y f { 5XM < i , = - 7.h ~ T j a.f.^ s = y s.R A L.s f l.{ 9.A 5 > m A g w q ",
"* j 9   + & + e l @ $.f b a d 7.j p H * H u 8.a ^ L R :.%.< 0 ! 2.7.M .X=.u 9.0.R w f m D B A Z 0.f ",
"O : + @ 7 > : ; v * : ; $ X $ 6 & 0 , B M s , u h f u s 5.%.k w.Z h R R f &.4 &.&.9.t q j q 0.r.V ; ",
"@ ; O o 5 * > j & > - 2 3 8 . % , 2 = j d | m q - m z k |.l.z Q R s j 0.#.3 $.V ; V A * g + 5 5 2 8 ",
"; :   + * 5 ; & ; ; - & ; > . * % 6 + * f # c X Z  .F.q.XXl.j $ # w , f Z 9 A > ; 2 0.4 C + * C 3 5 "
};
